<svg xmlns="http://www.w3.org/2000/svg" width="26" height="27" viewBox="0 0 26 27">
  <rect id="Rectangle_200" data-name="Rectangle 200" width="26" height="27" rx="6" fill="#55c7fb"/>
  <g id="help" transform="translate(6 6)">
    <g id="Group_785" data-name="Group 785">
      <path id="Path_1501" data-name="Path 1501" d="M7.171,0A7.171,7.171,0,0,0,0,7.115a7.219,7.219,0,0,0,7.171,7.171A7.143,7.143,0,0,0,7.171,0Zm.837,10.938a.837.837,0,1,1-1.674,0V6.7a.837.837,0,0,1,1.674,0ZM7.171,4.185a.837.837,0,1,1,.837-.837A.838.838,0,0,1,7.171,4.185Z" fill="#fff"/>
    </g>
  </g>
</svg>
