<svg xmlns="http://www.w3.org/2000/svg" width="18.114" height="18.152" viewBox="0 0 18.114 18.152">
    <g id="phone-call_7_" data-name="phone-call (7)" transform="translate(-0.539)">
        <g id="Group_1235" data-name="Group 1235" transform="translate(0.539 0)">
            <path id="Path_10919" data-name="Path 10919" d="M18.178,13.322l-2.533-2.533a1.685,1.685,0,0,0-2.8.633,1.724,1.724,0,0,1-1.99,1.086,7.811,7.811,0,0,1-4.7-4.7,1.64,1.64,0,0,1,1.086-1.99,1.685,1.685,0,0,0,.633-2.8L5.331.475a1.807,1.807,0,0,0-2.443,0L1.17,2.194C-.549,4,1.351,8.8,5.6,13.05s9.047,6.242,10.856,4.433l1.719-1.719A1.807,1.807,0,0,0,18.178,13.322Z" transform="translate(-0.539 0)" fill="#e36848"/>
        </g>
    </g>
</svg>
