<svg xmlns="http://www.w3.org/2000/svg" width="27.25" height="27.25" viewBox="0 0 27.25 27.25">
    <g id="credit-card" transform="translate(0 -0.004)">
        <g id="Group_825" data-name="Group 825" transform="translate(6.256 0.004)">
            <g id="Group_824" data-name="Group 824" transform="translate(0 0)">
                <path id="Path_1521" data-name="Path 1521" d="M129.326.549a1.867,1.867,0,0,0-2.636,0L117.539,9.69h6.017l7.457-7.457Z" transform="translate(-117.539 -0.004)" fill="#cc5637"/>
            </g>
        </g>
        <g id="Group_827" data-name="Group 827" transform="translate(14.531 3.362)">
            <g id="Group_826" data-name="Group 826">
                <path id="Path_1522" data-name="Path 1522" d="M285.187,68.93l-5.845-5.839-6.328,6.329h6.493a3.463,3.463,0,0,1,3.46,3.46v.9l2.221-2.219a1.862,1.862,0,0,0,0-2.635Z" transform="translate(-273.014 -63.091)" fill="#cc5637"/>
            </g>
        </g>
        <g id="Group_829" data-name="Group 829" transform="translate(12.668 20.761)">
            <g id="Group_828" data-name="Group 828">
                <path id="Path_1523" data-name="Path 1523" d="M239.826,390.316a1.064,1.064,0,1,0,0,1.505A1.061,1.061,0,0,0,239.826,390.316Z" transform="translate(-238.01 -390.005)" fill="#cc5637"/>
            </g>
        </g>
        <g id="Group_831" data-name="Group 831" transform="translate(16.393 20.761)">
            <g id="Group_830" data-name="Group 830">
                <path id="Path_1524" data-name="Path 1524" d="M309.826,390.316a1.064,1.064,0,1,0,0,1.505A1.061,1.061,0,0,0,309.826,390.316Z" transform="translate(-308.009 -390.005)" fill="#cc5637"/>
            </g>
        </g>
        <g id="Group_833" data-name="Group 833" transform="translate(0 11.287)">
            <g id="Group_832" data-name="Group 832">
                <path id="Path_1525" data-name="Path 1525" d="M21.023,212H1.863A1.865,1.865,0,0,0,0,213.859V226.1a1.865,1.865,0,0,0,1.863,1.863h19.16a1.865,1.865,0,0,0,1.863-1.863V213.859A1.865,1.865,0,0,0,21.023,212Zm-5.588,4.258h4.258v1.6H15.435Zm-11.762,0h9.474v1.6H3.672Zm15.667,8.162a2.664,2.664,0,0,1-3.745.018,2.661,2.661,0,1,1,0-3.8,2.664,2.664,0,0,1,3.745.018h0A2.664,2.664,0,0,1,19.339,224.416Z" transform="translate(0 -211.996)" fill="#cc5637"/>
            </g>
        </g>
    </g>
</svg>
