<svg xmlns="http://www.w3.org/2000/svg" width="26" height="27" viewBox="0 0 26 27">
  <rect id="Rectangle_202" data-name="Rectangle 202" width="26" height="27" rx="6" fill="#4cd966"/>
  <g id="basket_2_" data-name="basket (2)" transform="translate(5 -25)">
    <path id="Path_1483" data-name="Path 1483" d="M15.667,35.729H14l-3.641-4.551a.473.473,0,1,0-.738.591l3.168,3.96H3.348l3.168-3.96a.473.473,0,1,0-.738-.591L2.137,35.729H.473A.473.473,0,0,0,0,36.2v.946a.473.473,0,0,0,.473.473H15.667a.473.473,0,0,0,.473-.473V36.2a.473.473,0,0,0-.473-.473Z" transform="translate(0 0)" fill="#fff"/>
    <path id="Path_1484" data-name="Path 1484" d="M35.479,277.277a.473.473,0,0,0,.455.343h9.52a.473.473,0,0,0,.455-.343L47.7,271H33.686Zm7.381-2.1.473-2.837a.473.473,0,1,1,.933.155l-.473,2.837a.473.473,0,0,1-.933-.155Zm-2.639-2.759a.473.473,0,1,1,.946,0v2.837a.473.473,0,1,1-.946,0Zm-2.678-.466a.473.473,0,0,1,.544.389l.473,2.837a.473.473,0,1,1-.933.155l-.473-2.837A.473.473,0,0,1,37.543,271.952Z" transform="translate(-32.624 -232.434)" fill="#fff"/>
  </g>
</svg>
