<svg id="c142_x" xmlns="http://www.w3.org/2000/svg" width="20.465" height="20.465" viewBox="0 0 20.465 20.465">
    <path id="Path_197" data-name="Path 197" d="M10.231,0A10.233,10.233,0,1,0,20.465,10.233,10.232,10.232,0,0,0,10.231,0Zm4.4,13L13,14.631a37.573,37.573,0,0,0-2.771-2.766,38.108,38.108,0,0,0-2.768,2.766L5.831,13A31.934,31.934,0,0,0,8.6,10.237,31.5,31.5,0,0,0,5.831,7.465l1.63-1.631S10.062,8.6,10.23,8.6,13,5.834,13,5.834l1.63,1.631a37.471,37.471,0,0,0-2.77,2.771C11.86,10.42,14.63,13,14.63,13Z" fill="#fff"/>
</svg>
