<svg xmlns="http://www.w3.org/2000/svg" width="15.943" height="15.943" viewBox="0 0 15.943 15.943">
    <g id="link" transform="translate(0.993 1)">
        <g id="Group_1179" data-name="Group 1179" transform="translate(-0.993 -1)">
            <g id="Group_1178" data-name="Group 1178" transform="translate(0 0)">
                <path id="Path_10455" data-name="Path 10455" d="M5.616,183.6l-1.879,1.879a1.993,1.993,0,0,1-2.819-2.818L4.677,178.9a1.992,1.992,0,0,1,2.818,0,.664.664,0,0,0,.939-.939,3.321,3.321,0,0,0-4.7,0l-3.758,3.758a3.321,3.321,0,0,0,4.7,4.7l1.879-1.879a.664.664,0,1,0-.94-.939Z" transform="translate(0.994 -171.444)" fill="#fff"/>
                <path id="Path_10456" data-name="Path 10456" d="M198.961-.028a3.322,3.322,0,0,0-4.7,0l-2.254,2.254a.664.664,0,0,0,.939.939L195.2.912a1.993,1.993,0,0,1,2.819,2.818l-4.133,4.133a1.992,1.992,0,0,1-2.818,0,.664.664,0,0,0-.939.939,3.321,3.321,0,0,0,4.7,0l4.133-4.133A3.321,3.321,0,0,0,198.961-.028Z" transform="translate(-183.99 1.001)" fill="#fff"/>
            </g>
        </g>
    </g>
</svg>
