<svg xmlns="http://www.w3.org/2000/svg" width="25" height="25" viewBox="0 0 25 25">
    <rect id="Rectangle_2162" data-name="Rectangle 2162" width="25" height="25" rx="7" fill="#21bf73"/>
    <g id="Group_1014" data-name="Group 1014" transform="matrix(0.017, -1, 1, 0.017, 5.928, 18.706)">
        <g id="Group_1013" data-name="Group 1013">
            <path id="Path_10673" data-name="Path 10673" d="M117.443,133.869l-4.382-9.085a1.122,1.122,0,0,0-1.005-.769c-.194,0-.838.076-.993,1.057l-.587,3.305-3.44.683c-.843.154-1,.67-1.028.885s-.009.757.776,1.125l9.2,4.279a1.551,1.551,0,0,0,.655.162.952.952,0,0,0,.828-.439A1.187,1.187,0,0,0,117.443,133.869Zm-8.827-3.6,2.653-.527a.748.748,0,0,0,.591-.6l.442-2.489,3.316,6.875Z" transform="translate(-106 -124.015)" fill="#fff"/>
        </g>
    </g>
</svg>
