<svg id="calendar_2_" data-name="calendar (2)" xmlns="http://www.w3.org/2000/svg" width="15.666" height="15.666" viewBox="0 0 15.666 15.666">
  <path id="Path_2150" data-name="Path 2150" d="M13.647,1.224H12.239V.49a.49.49,0,0,0-.979,0v.734H4.406V.49a.49.49,0,1,0-.979,0v.734H2.019A2.022,2.022,0,0,0,0,3.243v10.4a2.022,2.022,0,0,0,2.019,2.019H13.647a2.022,2.022,0,0,0,2.019-2.019V3.243A2.022,2.022,0,0,0,13.647,1.224ZM2.019,2.2H3.427v.49a.49.49,0,1,0,.979,0V2.2H11.26v.49a.49.49,0,1,0,.979,0V2.2h1.407a1.041,1.041,0,0,1,1.04,1.04V4.406H.979V3.243A1.041,1.041,0,0,1,2.019,2.2ZM13.647,14.687H2.019a1.041,1.041,0,0,1-1.04-1.04V5.385H14.687v8.261A1.041,1.041,0,0,1,13.647,14.687Z" fill="#9c9fad"/>
</svg>
