<svg xmlns="http://www.w3.org/2000/svg" width="11.448" height="14.715" viewBox="0 0 11.448 14.715">
  <g id="trash" transform="translate(0)">
    <path id="Path_1503" data-name="Path 1503" d="M126.353.888h2.459V1.3h.888V.83a.831.831,0,0,0-.83-.83h-2.576a.831.831,0,0,0-.83.83V1.3h.888Zm0,0" transform="translate(-121.858 0)"/>
    <path id="Path_1504" data-name="Path 1504" d="M49.22,167.75H40.882a.391.391,0,0,0-.39.423l.7,8.619a.926.926,0,0,0,.922.852H47.99a.926.926,0,0,0,.922-.852l.7-8.619a.391.391,0,0,0-.39-.423ZM42.9,176.725h-.028a.444.444,0,0,1-.443-.417l-.437-7.076a.444.444,0,0,1,.887-.055l.437,7.076A.444.444,0,0,1,42.9,176.725Zm2.6-.443a.444.444,0,0,1-.888,0v-7.076a.444.444,0,0,1,.888,0Zm2.608-7.05-.417,7.076a.444.444,0,0,1-.443.418h-.026a.444.444,0,0,1-.417-.469l.417-7.076a.444.444,0,1,1,.887.052Zm0,0" transform="translate(-39.326 -162.929)"/>
    <path id="Path_1505" data-name="Path 1505" d="M11.429,77.472l-.292-.874a.565.565,0,0,0-.536-.386H.847a.565.565,0,0,0-.536.386l-.292.874a.367.367,0,0,0,.348.482H11.081a.362.362,0,0,0,.194-.056.366.366,0,0,0,.154-.426Zm0,0" transform="translate(0 -74.021)"/>
  </g>
</svg>
