<svg xmlns="http://www.w3.org/2000/svg" width="106.598" height="106.598"
    viewBox="0 0 106.598 106.598">
    <path id="Path_1526" data-name="Path 1526"
        d="M177.432,166.712a4.32,4.32,0,0,0-6.109-.161l-27.589,26.164L130.575,179.2a4.321,4.321,0,0,0-6.191,6.03L140.517,201.8a4.323,4.323,0,0,0,6.07.121l30.683-29.1A4.321,4.321,0,0,0,177.432,166.712Z"
        transform="translate(-97.517 -130.935)" fill="#ff724e" />
    <path id="Path_1527" data-name="Path 1527"
        d="M53.3,0a53.3,53.3,0,1,0,53.3,53.3A53.359,53.359,0,0,0,53.3,0Zm0,97.955A44.656,44.656,0,1,1,97.955,53.3,44.706,44.706,0,0,1,53.3,97.955Z"
        fill="#ffbfae" />
</svg>
