<svg xmlns="http://www.w3.org/2000/svg" width="316" height="267" viewBox="0 0 316 267" fill="none">
<path d="M9.5 201H55L56.5 184L34 166L13.5 178L9.5 201Z" fill="#ffeeee"/>
<circle cx="9" cy="192" r="9" fill="#ffeeee"/>
<circle cx="55" cy="192" r="9" fill="#ffeeee"/>
<circle cx="19" cy="181" r="9" fill="#ffeeee"/>
<circle cx="46" cy="179" r="10" fill="#ffeeee"/>
<circle cx="31" cy="171" r="10" fill="#ffeeee"/>
<path d="M61.8281 96H94.5312L95.6094 83.7812L79.4375 70.8438L64.7031 79.4688L61.8281 96Z" fill="#ffeeee"/>
<circle cx="61.4688" cy="89.5312" r="6.46875" fill="#ffeeee"/>
<circle cx="94.5312" cy="89.5312" r="6.46875" fill="#ffeeee"/>
<circle cx="68.6562" cy="81.625" r="6.46875" fill="#ffeeee"/>
<circle cx="88.0625" cy="80.1875" r="7.1875" fill="#ffeeee"/>
<circle cx="77.2812" cy="74.4375" r="7.1875" fill="#ffeeee"/>
<path d="M237 234H302.83L305 209.229L272.447 183L242.787 200.486L237 234Z" fill="#ffeeee"/>
<circle cx="236" cy="221" r="13" fill="#ffeeee"/>
<circle cx="303" cy="221" r="13" fill="#ffeeee"/>
<circle cx="250" cy="205" r="13" fill="#ffeeee"/>
<circle cx="290.5" cy="201.5" r="14.5" fill="#ffeeee"/>
<circle cx="268.5" cy="190.5" r="14.5" fill="#ffeeee"/>
<path d="M93.5 107L83 112L82.5 106.5L85 97L87.5 89.5L90.5 83.5L96.5 75.5L100.5 71L106 65L115 59.5L117.5 57L118 53L119.5 49H121.5L123 53V61.5L99.5 107H93.5Z" fill="white"/>
<path d="M115.333 241.267C109.466 242.867 107.333 244.6 107.333 247.933C107.333 251.667 110.266 252.2 118.933 249.933C127.333 247.933 129.733 244.733 125.2 241.4C122.533 239.4 121.733 239.4 115.333 241.267Z" fill="#18395D"/>
<path d="M122.5 59.5C104.5 70.7 98 95.5 97 106.5L104 109L112.5 114L115.5 113L126.5 105.5C126.5 70.7 136.5 55.3333 141.5 52L140.5 49.5L138.5 48L136.5 47.5L133.5 49.5L132.5 52.5V63L131.5 64.5L129.5 66.5H126.5L124.5 65.5C123.833 64.5 122.5 61.9 122.5 59.5Z" fill="#ffb6a4"/>
<path d="M188 105.5C187.6 81.1 172.167 65 164.5 60L162.5 61L160.5 62L158 61L156 58L155.5 46L152.5 43H149.5L147 46V56C155 60.8 157.667 91.3333 158 106L162.5 107.5L171 113.5H174L178 112.5C178.833 111.833 182 109.5 188 105.5Z" fill="#ffb6a4"/>
<path d="M124.5 264L117 258.5L121 257L131 251L136.5 243L137.5 235.5L136.5 232.5L134.5 228L133 199.5V172H147V242L160 241H175.5L192.5 240L195 235.5L197 230.5V223.5V196H225.5V232.5L224.5 247L222 253L217.5 259L212 263L205 264L181 265L124.5 264Z" fill="#ffaf9a"/>
<path d="M108 178H94L95 207H102.5L108 197V178Z" fill="#ffaf9a"/>
<path d="M147.6 43.9333C146.667 44.8667 146 48.7333 146 52.4667C146 56.3333 145.467 59.9333 144.667 60.3333C143.867 60.8666 143.333 59 143.333 55.8C143.333 51.8 142.533 49.9333 140.4 48.4667C135.6 45 132.133 48.3333 131.333 57.1333C130.8 63.2666 130.267 64.3333 127.733 64.7333C125.067 65.1333 124.8 64.6 124.4 56.7333C124.133 49.8 123.6 48.3333 121.467 47.9333C118.533 47.2667 116.667 49.8 116.667 54.4667C116.667 57.1333 115.6 58.4667 112.4 59.8C105.6 62.6 92.2666 76.7333 87.7332 85.9333C85.4666 90.4666 82.7999 98.3333 81.9999 103.267L80.3999 112.333L89.1999 130.2C97.5999 146.733 97.9999 148.067 95.7332 149.667C93.5999 151.267 93.3332 154.6 93.1999 190.2C93.0666 228.333 93.0666 229.133 90.1332 231.8C87.8666 233.933 87.5999 235 88.6666 237C89.4666 238.467 90.6666 239.667 91.3332 239.667C91.9999 239.667 92.9332 241 93.3332 242.6C95.7332 250.333 104.8 258.333 111.333 258.333C112.933 258.333 116.4 259.933 118.933 261.933L123.733 265.667L163.867 266.067C206.933 266.467 210.933 266.067 218.133 260.067C226 253.4 227.333 248.333 227.333 223.4V201.267L232 199.667C237.733 197.8 240.667 193.8 240.667 188.067V183.667H223.333C209.2 183.667 206 184.067 206 185.533C206 186.733 204.4 187.667 201.733 187.933L197.333 188.333L196.667 210.333C196.267 222.467 195.467 233.4 194.8 234.733C193.067 238.333 189.467 239.667 181.6 239.667C174.667 239.667 174.4 239.533 174.933 236.467C176.4 229.133 168.133 220.333 158.533 218.867C152 217.933 152.133 218.067 154.133 213.933C155.467 211.133 155.333 211.133 153.467 213.533C152.4 214.867 151.2 216.733 150.933 217.533C150.667 218.333 149.867 218.6 149.333 218.067C148.8 217.533 148.933 213.667 149.867 209.4C150.8 204.867 150.8 201.533 150.133 201.133C149.067 200.333 148.667 183.4 149.2 157.267C149.333 148.6 148.933 147.133 146.4 145C144 143.133 143.333 141 142.933 132.867L142.533 123L142.267 133.267C142 142.733 141.733 143.533 139.067 143.933C137.333 144.2 135.867 145.4 135.467 147C135.2 148.467 133.867 150.467 132.4 151.533C130.133 153 129.867 154.333 130.667 160.867C132.267 175.4 132.667 189.8 131.333 187C129.733 183.267 129.6 187.133 131.333 193C132.4 196.6 132.267 197.8 130.667 198.733C129.6 199.267 128.667 200.733 128.667 201.933C128.667 203.667 128.267 203.667 126.667 202.333C125.6 201.4 124.667 199 124.667 196.867C124.667 194.467 123.733 192.6 122 191.667C119.6 190.467 119.333 190.6 119.333 193.667C119.333 197.4 118.667 197.667 113.733 195.4C110.4 193.8 110.133 193 109.733 183.933C109.467 178.467 109.733 173.8 110.4 173.4C110.933 173.133 111.333 169.267 111.333 164.867C111.333 159 110.8 156.733 109.333 156.2C108.267 155.667 107.333 154.333 107.333 153.133C107.333 150.2 104.8 147.667 101.733 147.667C99.9999 147.667 97.0666 143.133 91.1999 131.4L83.0666 115.267L86.2666 112.867C92.6666 107.933 96.5332 107 101.067 109.533C109.467 113.933 111.733 115.4 112.8 117.267C113.733 118.6 114 118.6 114 117C114 115.933 115.067 114.333 116.4 113.667C117.733 112.867 121.067 111.133 123.733 109.8L128.533 107.267L134.267 111C141.333 115.667 145.333 115.8 152 111.267C154.933 109.267 158 107.667 158.8 107.667C159.733 107.667 163.333 109.667 166.8 112.067L173.333 116.6L177.333 114.067C189.467 106.733 189.733 106.733 196.533 110.6C200.667 112.867 202.533 114.867 202.4 116.467C202.267 118.867 202.267 118.867 204.133 116.333C208 111.267 203.467 92.3333 195.6 80.3333C189.867 71.6666 185.6 67.1333 177.333 61.6667C174.4 59.8 171.733 56.8666 171.333 55.2666C170.267 51.4 165.467 51.2666 164.933 55.2666C164.4 58.7333 161.333 61.5333 159.333 60.3333C158.667 59.9333 158 56.8667 158 53.5333C158 50.2 157.333 46.3333 156.667 44.8667C155.067 42.0667 150 41.5333 147.6 43.9333ZM154.533 47.1333C154.933 48.3333 155.333 51.8 155.333 55C155.333 59.5333 156 61.2666 158 62.3333C162 64.4666 165.467 62.8666 167.067 57.9333C168 54.7333 168.4 54.3333 168.533 56.6C168.667 58.4667 170.667 60.6 174.4 62.7333C181.333 66.8667 190.933 76.8666 195.733 85.1333C199.467 91.4 204.4 108.467 202.933 109.8C202.533 110.333 199.467 109.4 196.267 107.8C188.8 104.2 187.867 104.2 180.8 109C177.6 111.267 174.533 113 174 113C173.467 113 170.4 111.267 167.2 109C164 106.867 160.4 105 159.2 105C158.133 105 154.4 106.733 150.933 109C147.467 111.133 144 113 143.333 113C142.667 113 139.2 111.133 135.733 109C128.4 104.333 126.133 104.067 121.867 107.533C114.267 113.4 113.067 113.533 106.133 109.133C98.5332 104.2 97.8666 104.2 90.3999 107.8C87.1999 109.4 84.1332 110.333 83.7332 109.8C82.2666 108.333 85.9999 94.6 90.1332 86.4667C94.5332 77.8 108 64.0666 115.067 61.1333C118.667 59.6666 119.333 58.6 119.333 54.8667C119.333 52.3333 120 50.3333 120.667 50.3333C121.467 50.3333 122 53.5333 122 57.4C122 65 123.6 67.6667 128 67.6667C132.267 67.6667 134 65 134 58.3333C134 55 134.667 51.5333 135.467 50.7333C138.133 48.0667 140.667 50.3333 140.667 55.6667C140.667 58.6 141.6 61.4 142.8 62.4667C146.133 65.1333 148.667 60.6 148.667 52.0666C148.667 46.0666 149.067 45 151.2 45C152.533 45 154.133 45.9333 154.533 47.1333ZM146 148.867C147.733 152.2 147.733 164.6 146 165.667C145.333 166.067 144.667 167.667 144.667 169.133C144.667 171.133 143.733 171.667 140.4 171.667C136.933 171.667 135.6 170.867 134.4 168.067C132.267 163.667 132 152.467 134 153.667C134.8 154.067 135.333 155.667 135.333 157.133C135.333 159 136.267 159.667 138.667 159.667C140.533 159.667 142 159 142 158.333C142 157.533 141.067 157 140 157C138.533 157 138 155.533 138 151.667C138 146.867 138.4 146.333 141.333 146.333C143.2 146.333 145.2 147.4 146 148.867ZM104.4 156.067C104.667 159.8 104.267 161 102.8 161C101.733 161 100.4 161.533 99.9999 162.333C99.4666 163.133 100.667 163.667 102.667 163.667C104.933 163.667 106.533 162.733 107.333 160.6C108.267 158.2 108.533 158.867 108.533 163.933C108.667 173.133 106.8 177 102.4 177C97.4666 177 95.3332 172.333 95.3332 161.533C95.3332 155 95.8666 152.867 97.7332 151.8C101.733 149.267 104 150.733 104.4 156.067ZM145.733 209.933L145.333 245.667H141.333C137.867 245.667 137.333 245.267 137.867 242.333C138.133 240.467 138.533 233.4 138.933 226.6C139.467 216.333 139.2 214.2 137.467 213.533C135.6 212.867 135.333 209.667 135.333 193.533V174.333H140.667H146L145.733 209.933ZM107.2 189.267C107.067 194.6 106.8 197.933 106.4 196.6C106.133 195.4 104.667 194.333 103.2 194.333C101.067 194.333 100.667 195.267 100.667 199.667C100.667 203.533 100.133 205 98.6666 205C97.0666 205 96.6666 202.733 96.6666 192.333V179.667H102H107.333L107.2 189.267ZM224.667 222.333C224.667 245.667 223.6 250.467 217.067 257.4C212.4 262.2 206.533 263.667 192.4 263.667H180.667V253V242.333H190.4C206.133 242.2 208.667 238.733 208.667 216.467V201H216.667H224.667V222.333ZM205.333 219.267C205.333 231.8 205.067 233 202.133 236.2C197.467 241.133 194.667 240.867 197.333 235.667C198.667 233 199.333 227.8 199.333 218.333C199.333 205.133 199.333 204.867 202.4 205.267C205.2 205.667 205.333 206.2 205.333 219.267ZM121.333 221.667C122.8 222.333 124.267 223.133 124.667 223.533C125.067 223.933 126.533 225 128 225.8C129.867 226.867 130.667 228.6 130.533 231.533C130.267 235.667 131.733 237 133.467 234.2C134 233.133 134.8 233.267 135.867 234.333C136.933 235.4 136.8 236.2 135.2 237.4C134 238.333 133.333 239.667 133.6 240.6C134.4 243 130.4 250.067 126.8 252.333C121.733 255.667 115.867 256.867 110.667 255.667C101.6 253.667 93.0666 242.2 96.3999 236.867C97.3332 235.533 97.9999 232.467 97.9999 230.2C97.9999 226.067 99.3332 224.2 104 221.533C106.8 219.933 117.333 220.067 121.333 221.667ZM92.6666 235.667C92.6666 236.333 92.1332 237 91.3332 237C90.6666 237 89.9999 236.333 89.9999 235.667C89.9999 234.867 90.6666 234.333 91.3332 234.333C92.1332 234.333 92.6666 234.867 92.6666 235.667ZM172.667 253V263.667H150.667C133.6 263.667 127.467 263.133 123.6 261.533L118.667 259.533L123.333 257.533C125.867 256.467 128.933 254.6 130.267 253.4C132.133 251.8 133.333 251.667 136.667 252.867C142.267 254.733 149.067 251.933 152 246.467C154 242.467 154.267 242.333 163.333 242.333H172.667V253Z" fill="#18395D"/>
<path d="M102.8 235.267C101.333 236.733 102 238.333 104 238.333C105.066 238.333 106 237.8 106 237.133C106 235.4 103.866 234.2 102.8 235.267Z" fill="#18395D"/>
<path d="M113.467 235.267C112 236.733 112.667 238.333 114.667 238.333C115.733 238.333 116.667 237.8 116.667 237.133C116.667 235.4 114.533 234.2 113.467 235.267Z" fill="#18395D"/>
<path d="M121 24V39" stroke="#18395D" stroke-width="2" stroke-linecap="round" fill="#000000"/>
<path d="M137 5V34" stroke="#18395D" stroke-width="2" stroke-linecap="round" fill="#000000"/>
<path d="M152 19V34" stroke="#18395D" stroke-width="2" stroke-linecap="round" fill="#000000"/>
<path d="M152 1V10" stroke="#18395D" stroke-width="2" stroke-linecap="round" fill="#000000"/>
<path d="M237 156V171" stroke="#18395D" stroke-width="2" stroke-linecap="round" fill="#000000"/>
<path d="M166 33V43" stroke="#18395D" stroke-width="2" stroke-linecap="round" fill="#000000"/>
<path d="M166 24V27" stroke="#18395D" stroke-width="2" stroke-linecap="round" fill="#000000"/>
<path d="M237 137V147" stroke="#18395D" stroke-width="2" stroke-linecap="round" fill="#000000"/>
<path d="M121 15V18" stroke="#18395D" stroke-width="2" stroke-linecap="round" fill="#000000"/>
<path d="M228 161V176" stroke="#18395D" stroke-width="2" stroke-linecap="round" fill="#000000"/>
<path d="M228 151V154" stroke="#18395D" stroke-width="2" stroke-linecap="round" fill="#000000"/>
<line x1="150.332" y1="219.659" x2="203.332" y2="115.659" stroke="#18395D" stroke-width="1.5" fill="#000000"/>
<line x1="149.273" y1="204.814" x2="172.273" y2="114.814" stroke="#18395D" stroke-width="1.5" fill="#000000"/>
<line x1="142.75" y1="114" x2="142.75" y2="143" stroke="#18395D" stroke-width="1.5" fill="#000000"/>
<line x1="112.728" y1="114.82" x2="130.728" y2="187.82" stroke="#18395D" stroke-width="1.5" fill="#000000"/>
<line x1="109.671" y1="170.665" x2="120.671" y2="192.665" stroke="#18395D" stroke-width="1.5" fill="#000000"/>
<path d="M149 238V221H160.5C166.9 221.8 170.5 228.667 171.5 232V237L170.5 238L170 239H152L151.5 238H149Z" fill="#e36848"/>
<path d="M238 186H208V197H231.5C235.5 195.8 237.5 191.833 238 190V186Z" fill="#e36848"/>
<rect x="198" y="190" width="7" height="12" fill="#e36848"/>
</svg>