<svg xmlns="http://www.w3.org/2000/svg" width="14.6" height="14.6" viewBox="0 0 14.6 14.6">
  <g id="edit_1_" data-name="edit (1)" transform="translate(0 -0.501)">
    <path id="Path_1516" data-name="Path 1516" d="M11.559,90.683a.608.608,0,0,0-.608.608v4.867a.609.609,0,0,1-.608.608H1.825a.609.609,0,0,1-.608-.608V87.641a.609.609,0,0,1,.608-.608H6.692a.608.608,0,0,0,0-1.217H1.825A1.827,1.827,0,0,0,0,87.641v8.517a1.827,1.827,0,0,0,1.825,1.825h8.517a1.827,1.827,0,0,0,1.825-1.825V91.291a.608.608,0,0,0-.608-.608Zm0,0" transform="translate(0 -82.882)"/>
    <path id="Path_1517" data-name="Path 1517" d="M182.328,73.075a.308.308,0,0,0-.083.155l-.43,2.151a.3.3,0,0,0,.3.364.289.289,0,0,0,.06-.006l2.151-.43a.3.3,0,0,0,.156-.083l4.813-4.813-2.151-2.15Zm0,0" transform="translate(-176.624 -65.829)"/>
    <path id="Path_1518" data-name="Path 1518" d="M394.438.946a1.522,1.522,0,0,0-2.151,0l-.842.842L393.6,3.938l.842-.842a1.521,1.521,0,0,0,0-2.15Zm0,0" transform="translate(-380.283)"/>
  </g>
</svg>
