<svg xmlns="http://www.w3.org/2000/svg" width="196" height="196" viewBox="0 0 196 196">
    <circle id="Ellipse_79" data-name="Ellipse 79" cx="98" cy="98" r="98" fill="#fff"/>
    <g id="Group_841" data-name="Group 841" transform="translate(50.05 50.441)">
        <g id="Group_807" data-name="Group 807" transform="translate(17.696)">
            <path id="Path_1520" data-name="Path 1520" d="M98.943,45.495a2.95,2.95,0,0,1-2.637-4.271l11.8-23.6a2.951,2.951,0,1,1,5.28,2.637l-11.8,23.6A2.959,2.959,0,0,1,98.943,45.495Z" transform="translate(-95.992 -15.998)" fill="#ffbfae"/>
            <path id="Path_1521" data-name="Path 1521" d="M334.758,45.521a2.949,2.949,0,0,1-2.637-1.628l-11.8-23.6a2.951,2.951,0,1,1,5.28-2.637l11.8,23.6a2.955,2.955,0,0,1-1.321,3.958A3.047,3.047,0,0,1,334.758,45.521Z" transform="translate(-278.715 -16.024)" fill="#ffbfae"/>
        </g>
        <path id="Path_1522" data-name="Path 1522" d="M113.974,209.136a2.966,2.966,0,0,0-2.33-1.133H34.954a2.948,2.948,0,0,0-2.861,3.663l11.8,47.193a2.952,2.952,0,0,0,2.861,2.236H99.845a2.947,2.947,0,0,0,2.861-2.236l11.8-47.193A2.969,2.969,0,0,0,113.974,209.136Z" transform="translate(-26.105 -172.607)" fill="#e36848"/>
        <path id="Path_1523" data-name="Path 1523" d="M91.437,144H2.95A2.951,2.951,0,0,0,0,146.953v11.8a2.951,2.951,0,0,0,2.95,2.95H91.437a2.951,2.951,0,0,0,2.95-2.95v-11.8A2.951,2.951,0,0,0,91.437,144Z" transform="translate(0 -120.405)" fill="#ff8768"/>
    </g>
    <g id="Group_842" data-name="Group 842" transform="translate(81.231 104.199)">
        <path id="Path_1524" data-name="Path 1524" d="M242.95,327.6A2.951,2.951,0,0,1,240,324.65v-17.7a2.95,2.95,0,0,1,5.9,0v17.7A2.951,2.951,0,0,1,242.95,327.6Z" transform="translate(-225.252 -304.003)" fill="#fafafa"/>
        <path id="Path_1525" data-name="Path 1525" d="M162.95,327.6A2.951,2.951,0,0,1,160,324.65v-17.7a2.95,2.95,0,0,1,5.9,0v17.7A2.951,2.951,0,0,1,162.95,327.6Z" transform="translate(-160 -304.003)" fill="#fafafa"/>
        <path id="Path_1526" data-name="Path 1526" d="M322.95,327.6A2.951,2.951,0,0,1,320,324.65v-17.7a2.95,2.95,0,0,1,5.9,0v17.7A2.951,2.951,0,0,1,322.95,327.6Z" transform="translate(-290.504 -304.003)" fill="#fafafa"/>
    </g>
</svg>
