<svg xmlns="http://www.w3.org/2000/svg" width="261.295" height="242.08" viewBox="0 0 261.295 242.08">
    <g id="Group_1319" data-name="Group 1319" transform="translate(-15079.852 -192.624)">
        <path id="Path_10946" data-name="Path 10946" d="M175.169,50.367c-12.742-.121-90.041-1.329-92.275,20.231-2.174,20.593,27.779,13.044,28.081,22.223.3,9.6-5.375,12.38-21.318,11.776-6.884-.242-28.685,2.174-29.047,15.943-.362,13.708,23.975,11.957,22.767,23.31-.725,12.923-19.2,15.7-26.451,19.144-7.911,4.167-22.465,10.931-19.144,25.605,4.408,16.97,32.369,13.95,42.877,16,7.005,1.147,29.41,3.14,26.209,18.177-1.691,9.058-20.049,9.542-16.547,21.2,3.563,10.87,35.569,12.984,42.031,13.346,26.934,1.449,86.055,3.865,112.385-7.247,9.662-4.046,18.238-8.938,17.211-23.431-.483-12.984-7.488-14.856,4.288-24.881,7.428-6.462,21.68-5.918,20.834-24.76-.483-10.145-26.451-14.373-25.847-25,.906-16.668,32.792-2.536,32.912-32.067.06-18.419-57.914-8.092-57.31-26.33-.785-7.428,11.957-10.568,11.414-18.721C248.6,61.66,233.565,51.937,175.169,50.367Z" transform="translate(15042.555 151.98)" fill="#dff1ea" opacity="0.4"/>
        <path id="Path_10947" data-name="Path 10947" d="M152.21,262.045c-.06.06-.121.06-.242.06H107.582a.4.4,0,0,1-.423-.362,2.693,2.693,0,0,1,3.623-2.959,2.2,2.2,0,0,1,2.416-1.691,3.934,3.934,0,0,1,2.234-4.831,3.73,3.73,0,0,1,4.71,1.268,7.886,7.886,0,0,1,6.884-6.341,7.65,7.65,0,0,1,5.314,1.631,6.738,6.738,0,0,1,2.295,4.167,4.154,4.154,0,0,1,4.831-1.691c1.993.6,2.234,2.657,2.174,4.469,1.631-1.329,3.563-1.993,5.616-.725,1.751,1.027,2.114,2.718,2.174,4.529,1.449-.845,2.9,0,3.02,1.932C152.451,261.864,152.391,261.985,152.21,262.045Z" transform="translate(15014.907 74.005)" fill="#eaf9f3"/>
        <path id="Path_10948" data-name="Path 10948" d="M386.9,113.751c0,8.515,23.069,10.085,24.277,0C412.445,103.666,386.9,100.948,386.9,113.751Z" transform="translate(14904.076 130.266)" fill="#dff1ea" opacity="0.4"/>
        <path id="Path_10949" data-name="Path 10949" d="M78.2,329.443c0,8.515,28.564,10.145,29.591,0C109.119,316.943,78.2,314.527,78.2,329.443Z" transform="translate(15026.354 45.498)" fill="#dff1ea" opacity="0.4"/>
        <path id="Path_10950" data-name="Path 10950" d="M354,407.679c0,10.085,33.879,12.017,35.147,0C390.657,392.823,354,389.984,354,407.679Z" transform="translate(14917.108 15.272)" fill="#dff1ea" opacity="0.4"/>
        <path id="Path_10951" data-name="Path 10951" d="M74.2,115.995c0,5.556,15.762,6.643,16.305,0C91.23,107.842,74.2,106.272,74.2,115.995Z" transform="translate(15027.938 128.625)" fill="#dff1ea" opacity="0.4"/>
        <path id="Path_10952" data-name="Path 10952" d="M189.857,273.412c.483-2.355-3.02-4.529-5.737-3.684.423-1.631-.06-3.08-2.476-3.8a5.979,5.979,0,0,0-3.261,0c1.872-3.744.121-8.032-5.677-8.938-6.341-.966-13.346,2.174-14.614,7.126-5.133-5.073-16.064,1.027-12.863,6.824-1.993-.3-4.046.785-4.167,2.476a2.027,2.027,0,0,0-2.355,3.14c.06.121.3.181.483.181h53.747a2.617,2.617,0,0,0,.3-.06c.06-.06.181-.121.181-.242C194.084,274.74,191.849,273.11,189.857,273.412Z" transform="translate(15002.563 70.187)" fill="#fff"/>
        <path id="Path_10953" data-name="Path 10953" d="M209.657,345.8c.181-1.027-1.329-1.993-2.536-1.631.181-.725,0-1.389-1.087-1.691a2.942,2.942,0,0,0-1.449,0c.845-1.63.06-3.563-2.536-3.925-2.778-.423-5.918.966-6.462,3.14-2.295-2.234-7.126.423-5.677,3.019-.906-.121-1.812.362-1.812,1.087a.889.889,0,0,0-1.027,1.389c.06.06.121.121.181.121h23.733c.06,0,.121,0,.121-.06.06,0,.06-.06.06-.121C211.529,346.4,210.563,345.676,209.657,345.8Z" transform="translate(14983.307 37.84)" fill="#fff"/>
        <path id="Path_10954" data-name="Path 10954" d="M414.281,182.978c.06,0,.121.06.181.06H447.5c.121,0,.3-.121.3-.242a1.969,1.969,0,0,0-2.657-2.174,1.719,1.719,0,0,0-1.812-1.268,2.825,2.825,0,0,0-1.691-3.563,2.792,2.792,0,0,0-3.5.906,5.9,5.9,0,0,0-5.133-4.71,5.455,5.455,0,0,0-3.925,1.208,4.8,4.8,0,0,0-1.691,3.14,3.174,3.174,0,0,0-3.623-1.268c-1.51.483-1.691,1.993-1.631,3.321a3.461,3.461,0,0,0-4.167-.543,3.8,3.8,0,0,0-1.631,3.382c-1.087-.6-2.174,0-2.234,1.449C414.1,182.857,414.16,182.978,414.281,182.978Z" transform="translate(14893.303 103.794)" fill="#fff"/>
        <path id="Path_10955" data-name="Path 10955" d="M240.754,87.082c.06,0,.06.06.121.06h22.344c.121,0,.181-.06.242-.181a1.363,1.363,0,0,0-1.812-1.51,1.121,1.121,0,0,0-1.208-.845,2.009,2.009,0,0,0-3.5-1.812,3.974,3.974,0,0,0-3.442-3.2,3.759,3.759,0,0,0-2.657.785,3.362,3.362,0,0,0-1.147,2.114,2.091,2.091,0,0,0-2.416-.845c-1.027.3-1.147,1.329-1.087,2.234a2.346,2.346,0,0,0-2.838-.362,2.51,2.51,0,0,0-1.087,2.295c-.725-.423-1.449,0-1.51.966C240.634,87.022,240.694,87.082,240.754,87.082Z" transform="translate(14961.993 140.387)" fill="#fff"/>
        <g id="Group_1308" data-name="Group 1308" transform="translate(15208.61 319.116)">
            <path id="Path_10956" data-name="Path 10956" d="M316.794,412.383c0-.06-.06-.181-.06-.242a.408.408,0,0,0-.362-.242c-5.616.06-11.232.181-16.849.3a.413.413,0,0,0-.423.423c.121,3.261-.121,6.583.423,9.844.483,3.02,3.8,3.2,6.341,3.382,3.261.181,7.911.3,9.783-1.449C317.76,422.468,316.915,415.584,316.794,412.383Z" transform="translate(-269.756 -310.36)" fill="#82b7bc"/>
            <g id="Group_1300" data-name="Group 1300" transform="translate(29.086 103.352)">
                <path id="Path_10957" data-name="Path 10957" d="M301.83,419.973a3.271,3.271,0,0,1-3.14-2.416.231.231,0,0,1,.181-.3c.121,0,.3.06.3.181a2.655,2.655,0,0,0,3.382,1.932c1.812-.362,1.993-4.167,1.993-4.227a.26.26,0,0,1,.242-.242.332.332,0,0,1,.3.181,4.9,4.9,0,0,1,.181.664,6.826,6.826,0,0,0,1.208,2.959,4.22,4.22,0,0,0,3.8.362c1.027-.423,1.51-1.872,1.51-3.2,0-.181-.06-.362-.06-.6a.26.26,0,0,1,.241-.242.308.308,0,0,1,.3.242c0,.181.06.362.06.6a3.472,3.472,0,0,0,2.114,2.9,2.077,2.077,0,0,0,2.295-1.027c.06-.121.241-.121.362-.06s.121.242.06.362a2.557,2.557,0,0,1-2.838,1.208,3.588,3.588,0,0,1-2.114-1.993,3.087,3.087,0,0,1-1.691,2.295,4.838,4.838,0,0,1-4.348-.483,5.082,5.082,0,0,1-1.208-2.416c-.242,1.268-.846,3.019-2.234,3.261C302.373,419.912,302.071,419.973,301.83,419.973Z" transform="translate(-298.673 -414.9)" fill="#a3d0d8"/>
            </g>
            <g id="Group_1301" data-name="Group 1301" transform="translate(29.225 100.416)">
                <path id="Path_10958" data-name="Path 10958" d="M307.477,410.076c-1.812,0-7.851.06-8.515,1.449-.906,1.932,9,1.751,10.87,1.691C318.89,412.974,319.917,409.653,307.477,410.076Z" transform="translate(-298.903 -410.038)" fill="#709da0"/>
            </g>
            <g id="Group_1302" data-name="Group 1302" transform="translate(28.871 100.076)">
                <path id="Path_10959" data-name="Path 10959" d="M307.244,409.55c-1.027,0-9.662-.121-8.877,2.174.362,1.147,2.234,1.268,3.2,1.389a46.735,46.735,0,0,0,6.522.3,36.68,36.68,0,0,0,5.737-.423c.845-.121,2.657-.423,3.019-1.449.906-2.536-8.938-2.053-9.6-1.993-.423,0-.423.725,0,.664a48.4,48.4,0,0,1,5.918.121c.362.06,3.8.483,2.657,1.208-2.053,1.329-5.375,1.087-7.79,1.147a33.035,33.035,0,0,1-8.092-.6c-1.268-.362-.423-1.027.423-1.268a19.621,19.621,0,0,1,2.718-.423q2.083-.181,4.167-.181A.333.333,0,0,0,307.244,409.55Z" transform="translate(-298.317 -409.475)" fill="#a3d0d8"/>
            </g>
            <g id="Group_1306" data-name="Group 1306" transform="translate(27.955 80.978)">
                <g id="Group_1303" data-name="Group 1303" transform="translate(18.781 0.121)">
                    <path id="Path_10960" data-name="Path 10960" d="M328.323,378.322c-.121,6.824-.362,13.648-.423,20.472a.272.272,0,1,0,.544,0c.121-6.824.362-13.648.423-20.472a.272.272,0,1,0-.544,0Z" transform="translate(-327.9 -378.05)" fill="#82b7bc"/>
                </g>
                <g id="Group_1304" data-name="Group 1304">
                    <path id="Path_10961" data-name="Path 10961" d="M296.8,378.122c.181,6.945.3,13.829,1.027,20.714.06.3.543.3.543,0-.725-6.884-.845-13.769-1.027-20.714a.272.272,0,0,0-.544,0Z" transform="translate(-296.8 -377.85)" fill="#82b7bc"/>
                </g>
                <g id="Group_1305" data-name="Group 1305" transform="translate(9.36 1.147)">
                    <path id="Path_10962" data-name="Path 10962" d="M312.3,380.022c.6,6.945-.121,13.95.483,20.955,0,.3.544.362.544,0-.6-6.945.121-13.95-.483-20.955a.272.272,0,1,0-.544,0Z" transform="translate(-312.3 -379.75)" fill="#82b7bc"/>
                </g>
            </g>
            <path id="Path_10963" data-name="Path 10963" d="M353.19,272.016c-2.174-5.5-6.22-11.051-12.5-12.138h-.242c-4.71-.483-7.428,4.227-9.058,7.79-2.959,6.462-4.288,13.708-5.435,20.714-2.295,13.708-4.65,28.685-.664,42.273a.9.9,0,0,0,1.631.181c4.288-6.583,13.165-8.877,18.842-14.131,5.918-5.5,8.938-13.527,9.9-21.318C356.632,287.355,356.149,279.5,353.19,272.016Z" transform="translate(-279.279 -250.13)" fill="#a3d0d8"/>
            <path id="Path_10964" data-name="Path 10964" d="M277.679,295c-2.114-11.293-7.005-22.525-12.682-32.49a.768.768,0,0,0-.845-.423,1.536,1.536,0,0,0-.423.121c-5.737,2.959-8.757,8.575-10.689,14.373-2.053,6.22-3.14,13.829-2.174,20.351,1.268,8.455,6.039,15.882,12.32,21.68,5.133,4.71,11.534,7.79,16.124,13.225a.889.889,0,0,0,1.51-.6A207.738,207.738,0,0,0,277.679,295Z" transform="translate(-250.509 -251.014)" fill="#bce0e8"/>
            <path id="Path_10965" data-name="Path 10965" d="M326.1,247.251c-5.012-2.778-10.931-3.2-16.486-2.114a.712.712,0,0,0-.6.543c-3.382,4.831-3.865,11.534-4.348,17.151a206.209,206.209,0,0,0-.181,26.632c.543,11.957,1.51,23.914,3.08,35.751a.877.877,0,0,0,.906.845h10.266a1.032,1.032,0,0,0,.785-.423C329,308.245,331.652,287.35,333.223,267.9c.362-4.408.664-8.877.725-13.286C333.887,251.72,328.21,248.4,326.1,247.251Z" transform="translate(-271.751 -244.086)" fill="#bce0e8"/>
            <path id="Path_10966" data-name="Path 10966" d="M298.69,248.252c-1.631-9.24-17.936-1.872-22.284,1.268-3.986,2.9-5.073,5.677-5.314,10.146A125.822,125.822,0,0,0,272,282.01a110,110,0,0,0,7.971,29.651c1.268,2.838,2.657,5.677,4.167,8.394.664,1.268,2.174,5.194,3.684,5.616,2.174.6,5.133.06,7.368.06a.853.853,0,0,0,.845-.6.453.453,0,0,0,.06-.3c1.389-16.909,2.536-33.818,3.08-50.727C299.535,265.645,300.2,256.646,298.69,248.252Z" transform="translate(-258.597 -243.758)" fill="#a3d0d8"/>
            <g id="Group_1307" data-name="Group 1307" transform="translate(26.68 79.775)">
                <path id="Path_10967" data-name="Path 10967" d="M295.783,378.42a58.367,58.367,0,0,0,20.231,0c1.872-.3,1.087-2.838-.785-2.536a53.452,53.452,0,0,1-18.6,0c-1.932-.3-2.778,2.234-.845,2.536Z" transform="translate(-294.689 -375.859)" fill="#82b7bc"/>
            </g>
        </g>
        <path id="Path_10968" data-name="Path 10968" d="M190.269,107.342v-.121c0-.06-.06-.121-.181-.121-2.416.06-4.892.06-7.307.121a.16.16,0,0,0-.181.181,33,33,0,0,0,.181,4.227c.242,1.329,1.631,1.389,2.718,1.449,1.389.06,3.442.121,4.227-.6C190.692,111.69,190.33,108.731,190.269,107.342Z" transform="translate(14985.001 129.488)" fill="#8ca8af"/>
        <g id="Group_1309" data-name="Group 1309" transform="translate(15167.479 237.434)">
            <path id="Path_10969" data-name="Path 10969" d="M183.789,110.674a1.566,1.566,0,0,1-1.389-1.027c0-.06,0-.121.06-.121s.121,0,.121.06a1.122,1.122,0,0,0,1.449.845c.785-.121.845-1.812.845-1.812A.13.13,0,0,1,185,108.5c.06,0,.121,0,.121.06a2.617,2.617,0,0,1,.06.3,2.706,2.706,0,0,0,.544,1.268,1.934,1.934,0,0,0,1.631.181,1.5,1.5,0,0,0,.664-1.389v-.242a.121.121,0,0,1,.242,0v.242a1.622,1.622,0,0,0,.906,1.268.845.845,0,0,0,.966-.423.128.128,0,0,1,.181.181,1.082,1.082,0,0,1-1.208.544,1.548,1.548,0,0,1-.906-.845,1.625,1.625,0,0,1-.725,1.027,2.057,2.057,0,0,1-1.872-.181,2.032,2.032,0,0,1-.483-1.027c-.121.544-.362,1.329-.966,1.389C184.031,110.614,183.91,110.674,183.789,110.674Z" transform="translate(-182.4 -108.5)" fill="#a9c0c9"/>
        </g>
        <g id="Group_1310" data-name="Group 1310" transform="translate(15167.578 236.138)">
            <path id="Path_10970" data-name="Path 10970" d="M186.269,106.382c-.785,0-3.382.06-3.684.6-.362.845,3.865.785,4.71.725C191.221,107.59,191.644,106.141,186.269,106.382Z" transform="translate(-182.564 -106.355)" fill="#6b7d7e"/>
        </g>
        <g id="Group_1311" data-name="Group 1311" transform="translate(15167.396 235.963)">
            <path id="Path_10971" data-name="Path 10971" d="M186.149,106.086c-.423,0-4.227-.06-3.865.966.181.483.966.544,1.389.6a21.849,21.849,0,0,0,2.838.121,17.079,17.079,0,0,0,2.476-.181c.362-.06,1.147-.181,1.329-.6.362-1.147-3.865-.906-4.167-.906a.152.152,0,0,0,0,.3c.845,0,1.691,0,2.536.06.121,0,1.631.242,1.147.544-.906.6-2.355.483-3.382.483a13.7,13.7,0,0,1-3.5-.242c-.543-.121-.181-.483.181-.544a7.556,7.556,0,0,1,1.147-.181c.6-.06,1.208-.06,1.812-.06C186.33,106.388,186.33,106.086,186.149,106.086Z" transform="translate(-182.26 -106.065)" fill="#a9c0c9"/>
        </g>
        <g id="Group_1315" data-name="Group 1315" transform="translate(15167.048 227.696)">
            <g id="Group_1312" data-name="Group 1312" transform="translate(8.102 0.06)">
                <path id="Path_10972" data-name="Path 10972" d="M195.281,92.611c-.06,2.959-.181,5.918-.181,8.877,0,.121.242.121.242,0l.181-8.877a.122.122,0,1,0-.242,0Z" transform="translate(-195.1 -92.475)" fill="#8ca8af"/>
            </g>
            <g id="Group_1313" data-name="Group 1313">
                <path id="Path_10973" data-name="Path 10973" d="M181.694,92.511c.121,3.019.121,5.979.423,8.938,0,.121.242.121.242,0-.3-2.959-.362-5.979-.423-8.938-.06-.181-.3-.181-.242,0Z" transform="translate(-181.684 -92.375)" fill="#8ca8af"/>
            </g>
            <g id="Group_1314" data-name="Group 1314" transform="translate(4.046 0.528)">
                <path id="Path_10974" data-name="Path 10974" d="M188.394,93.341c.242,3.019-.06,6.039.181,9.058,0,.121.242.121.242,0-.242-3.019.06-6.039-.181-9.058-.06-.121-.3-.121-.242,0Z" transform="translate(-188.384 -93.25)" fill="#8ca8af"/>
            </g>
        </g>
        <path id="Path_10975" data-name="Path 10975" d="M206.046,46.546c-.966-2.416-2.657-4.771-5.435-5.254h-.121c-2.053-.181-3.2,1.812-3.925,3.382a34.849,34.849,0,0,0-2.355,8.938c-.966,5.918-1.993,12.44-.3,18.3a.4.4,0,0,0,.725.06c1.872-2.838,5.677-3.865,8.153-6.1a15.161,15.161,0,0,0,4.288-9.24A19.786,19.786,0,0,0,206.046,46.546Z" transform="translate(14980.879 155.559)" fill="#a9c0c9"/>
        <path id="Path_10976" data-name="Path 10976" d="M173.354,56.552a45.531,45.531,0,0,0-5.5-14.071.43.43,0,0,0-.362-.181.222.222,0,0,0-.181.06c-2.476,1.268-3.8,3.684-4.65,6.22A19.911,19.911,0,0,0,161.7,57.4a16,16,0,0,0,5.314,9.36c2.234,2.053,5.012,3.382,7.005,5.737a.392.392,0,0,0,.664-.242A90.339,90.339,0,0,0,173.354,56.552Z" transform="translate(14993.341 155.156)" fill="#c7e0e8"/>
        <path id="Path_10977" data-name="Path 10977" d="M194.286,35.843a10.391,10.391,0,0,0-7.126-.906.26.26,0,0,0-.242.242c-1.449,2.053-1.691,5.012-1.872,7.428a81.706,81.706,0,0,0-.06,11.534c.242,5.194.664,10.327,1.329,15.46a.39.39,0,0,0,.362.362h4.469a.522.522,0,0,0,.362-.181c4.107-7.549,5.254-16.607,5.918-25,.181-1.932.3-3.865.3-5.737C197.668,37.775,195.252,36.326,194.286,35.843Z" transform="translate(14984.125 158.171)" fill="#c7e0e8"/>
        <path id="Path_10978" data-name="Path 10978" d="M182.511,36.232c-.725-3.986-7.79-.785-9.662.544a5.023,5.023,0,0,0-2.295,4.408,51.793,51.793,0,0,0,.423,9.662,47.712,47.712,0,0,0,3.442,12.863,33.785,33.785,0,0,0,1.812,3.623c.3.544.966,2.234,1.57,2.416a14.182,14.182,0,0,0,3.2,0,.408.408,0,0,0,.362-.242c0-.06,0-.06.06-.121.6-7.307,1.087-14.614,1.329-21.982C182.813,43.781,183.115,39.916,182.511,36.232Z" transform="translate(14989.8 158.325)" fill="#a9c0c9"/>
        <g id="Group_1316" data-name="Group 1316" transform="translate(15166.451 227.208)">
            <path id="Path_10979" data-name="Path 10979" d="M181.182,92.674a25.088,25.088,0,0,0,8.756,0c.845-.121.483-1.268-.362-1.087a22.771,22.771,0,0,1-8.092,0c-.785-.181-1.147.906-.3,1.087Z" transform="translate(-180.697 -91.566)" fill="#8ca8af"/>
        </g>
        <rect id="Rectangle_2256" data-name="Rectangle 2256" width="193.368" height="67.878" transform="translate(15118.745 262.858)" fill="none"/>
        <text id="something_went_" data-name="something went " transform="translate(15130.474 280.833)" fill="#a9c0c9" font-size="22" font-family="Helvetica"><tspan x="0" y="0">something went </tspan></text>
        <text id="wrong" transform="translate(15185.474 308.095)" fill="#a9c0c9" font-size="22" font-family="Helvetica"><tspan x="0" y="0">wrong</tspan></text>
        <rect id="Rectangle_2257" data-name="Rectangle 2257" width="56.947" height="12.863" transform="translate(15188.012 236.286)" fill="none"/>
        <text id="Oops_" data-name="Oops!" transform="translate(15185.474 253.422)" fill="#c2d7e0" font-size="19" font-family="Helvetica"><tspan x="0" y="0">Oops!</tspan></text>
    </g>
</svg>
