<svg xmlns="http://www.w3.org/2000/svg" width="16.983" height="15.56" viewBox="0 0 16.983 15.56">
  <g id="Group_1157" data-name="Group 1157" transform="translate(0 0)">
    <path id="Path_2145" data-name="Path 2145" d="M80.586,81.757H70.468a2.087,2.087,0,0,0-3.957,0H64.931a.664.664,0,0,0,0,1.329h1.579a2.087,2.087,0,0,0,3.957,0H80.586a.664.664,0,1,0,0-1.329Zm-12.1,1.423a.759.759,0,1,1,.759-.759A.76.76,0,0,1,68.489,83.18Z" transform="translate(-64.267 -80.334)" fill="#000000"/>
    <path id="Path_2146" data-name="Path 2146" d="M80.586,210.29H79.006a2.087,2.087,0,0,0-3.957,0H64.931a.664.664,0,1,0,0,1.329H75.049a2.087,2.087,0,0,0,3.957,0h1.579a.664.664,0,1,0,0-1.329Zm-3.558,1.423a.759.759,0,1,1,.759-.759A.76.76,0,0,1,77.028,211.713Z" transform="translate(-64.267 -203.175)" fill="#000000"/>
    <path id="Path_2147" data-name="Path 2147" d="M80.586,338.823H73.314a2.087,2.087,0,0,0-3.957,0H64.931a.664.664,0,0,0,0,1.329h4.426a2.087,2.087,0,0,0,3.957,0h7.272a.664.664,0,1,0,0-1.329Zm-9.25,1.423a.759.759,0,1,1,.759-.759A.76.76,0,0,1,71.335,340.246Z" transform="translate(-64.267 -326.015)" fill="#000000"/>
  </g>
</svg>
