<svg xmlns="http://www.w3.org/2000/svg" width="26.378" height="26.404" viewBox="0 0 26.378 26.404">
  <g id="Group_1478" data-name="Group 1478" transform="translate(-54 -136)">
    <path id="Path_11182" data-name="Path 11182" d="M201.9-511.845a1.2,1.2,0,0,0-.511.511A2.3,2.3,0,0,0,201-510.05a2.09,2.09,0,0,0,.366,1.222.986.986,0,0,1,.046,1.145,1.232,1.232,0,0,0-.155.485.775.775,0,0,0,1.181.65,2.249,2.249,0,0,0,.676-1.686,2.146,2.146,0,0,0-.361-1.279c-.273-.459-.278-.645-.005-1.052s.3-.619.165-.913A.752.752,0,0,0,201.9-511.845Z" transform="translate(-136.647 647.923)" fill="#fff"/>
    <path id="Path_11183" data-name="Path 11183" d="M270.8-511.686a2.109,2.109,0,0,0-.908,1.779,2.016,2.016,0,0,0,.346,1.207,1.041,1.041,0,0,1,.077,1.176c-.289.541-.16,1.016.325,1.2.418.16.768,0,1.042-.469a2.548,2.548,0,0,0-.057-2.609c-.273-.443-.258-.624.1-1.124a.757.757,0,0,0-.541-1.222A.737.737,0,0,0,270.8-511.686Z" transform="translate(-201.99 647.759)" fill="#fff"/>
    <path id="Path_11184" data-name="Path 11184" d="M67.9-390.595c-.387.119-.547.433-.547,1.078v.464l-3.414.015-3.419.015-.418.144a3.179,3.179,0,0,0-2.1,2.238c-.18.691-.077,1.181.289,1.408.17.1.284.1,9.839.1s9.669,0,9.839-.1a.787.787,0,0,0,.371-.768,3.177,3.177,0,0,0-2.186-2.877l-.418-.144-3.414-.015-3.409-.015-.021-.536c-.01-.443-.036-.557-.124-.676A.784.784,0,0,0,67.9-390.595Z" transform="translate(-0.942 532.882)" fill="#fff"/>
    <path id="Path_11185" data-name="Path 11185" d="M.72-253.928a.846.846,0,0,0-.464.6.585.585,0,0,0,.088.449.744.744,0,0,0,.737.428h.263l.067.268a5.511,5.511,0,0,0,.3.732,3.244,3.244,0,0,0,.66.908l.428.438.005-1.949V-254H1.844A4.607,4.607,0,0,0,.72-253.928Z" transform="translate(53.758 403.301)" fill="#fff"/>
    <path id="Path_11186" data-name="Path 11186" d="M79.915-248.833l.015,5.172.139.392a3.43,3.43,0,0,0,2.181,2.2l.413.144,5.018.015,5.012.015-.423-.433a6.7,6.7,0,0,1-1.877-3.579,7.35,7.35,0,0,1,.237-3.264,6.809,6.809,0,0,1,3.713-4.048,6.357,6.357,0,0,1,2.945-.531l.768.026V-254H79.9Z" transform="translate(-21.792 403.301)" fill="#fff"/>
    <path id="Path_11187" data-name="Path 11187" d="M462-253.134v.866l.376.186c.2.1.469.253.593.325l.217.134.077-.175c.036-.093.1-.284.134-.413l.057-.242h.268a.747.747,0,0,0,.743-.428.585.585,0,0,0,.088-.449.835.835,0,0,0-.531-.619,8.532,8.532,0,0,0-1.1-.052H462Z" transform="translate(-384.188 403.301)" fill="#fff"/>
    <path id="Path_11188" data-name="Path 11188" d="M315.628-199.63a5.613,5.613,0,0,0-2.388,1.191,5.618,5.618,0,0,0-1.562,2.48,5.155,5.155,0,0,0,1.367,5.069,5.348,5.348,0,0,0,2.382,1.346,6.289,6.289,0,0,0,2.444,0,4.991,4.991,0,0,0,2.295-1.269,5.128,5.128,0,0,0,1.521-2.594,6.283,6.283,0,0,0,.046-2.1,5.2,5.2,0,0,0-3.692-4.027,3.874,3.874,0,0,0-1.263-.155A4.741,4.741,0,0,0,315.628-199.63Zm1.356,2.145c.407.206.438.315.438,1.511,0,.908-.01,1.052-.093,1.186a.746.746,0,0,1-.6.376.751.751,0,0,1-.67-.273c-.129-.134-.129-.144-.144-1.227-.021-1.2.005-1.325.289-1.511A.663.663,0,0,1,316.985-197.484Zm-.015,4.471a.741.741,0,0,1,.2,1.232.541.541,0,0,1-.454.2.657.657,0,0,1-.443-.083.766.766,0,0,1,.057-1.346A.608.608,0,0,1,316.969-193.013Z" transform="translate(-241.441 351.797)" fill="#e36848"/>
  </g>
</svg>
