<svg xmlns="http://www.w3.org/2000/svg" width="17.01" height="17.01" viewBox="0 0 17.01 17.01">
    <path id="question" d="M8.471,13.322a.664.664,0,1,1,.664-.664A.664.664,0,0,1,8.471,13.322Zm.664-2.99V9.44A2.77,2.77,0,1,0,6.522,4.768,2.721,2.721,0,0,0,5.68,6.744a.664.664,0,0,0,1.329,0,1.4,1.4,0,0,1,.435-1.018,1.47,1.47,0,0,1,1.085-.409,1.435,1.435,0,0,1,.263,2.839,1.242,1.242,0,0,0-.985,1.219v.958a.664.664,0,1,0,1.329,0Zm3.77,5.452a.664.664,0,1,0-.688-1.137,7.239,7.239,0,1,1,2.247-2.16.664.664,0,1,0,1.1.739A8.5,8.5,0,0,0,2.49,2.491,8.506,8.506,0,0,0,12.905,15.784Zm0,0" transform="translate(0.001 0)"/>
</svg>
