<svg xmlns="http://www.w3.org/2000/svg" width="17.132" height="14" viewBox="0 0 17.132 14">
  <g id="hotel-bell" transform="translate(-21.443 447.719)">
    <path id="Path_11193" data-name="Path 11193" d="M59.025-447.7a1.233,1.233,0,0,0-.785.643.891.891,0,0,0-.088.493,1.045,1.045,0,0,0,.267.771,1.4,1.4,0,0,0,.709.38l.172.026v.234c0,.212-.007.234-.08.252a7.691,7.691,0,0,0-2.645,1.008,7.509,7.509,0,0,0-3.08,3.81,7.686,7.686,0,0,0-.431,2.506c-.026.785,0,.932.161,1.059.095.073.132.073,7.244.073s7.149,0,7.244-.073c.161-.128.186-.274.161-1.045a7.424,7.424,0,0,0-1.027-3.8,7.47,7.47,0,0,0-4.862-3.489c-.369-.069-.347-.051-.347-.311v-.23l.172-.026a1.42,1.42,0,0,0,.621-.289,1.436,1.436,0,0,0,.234-.321.83.83,0,0,0,.124-.541.83.83,0,0,0-.124-.541,1.121,1.121,0,0,0-.552-.526c-.161-.084-.19-.084-1.571-.091C59.767-447.722,59.088-447.711,59.025-447.7Z" transform="translate(-30.457 0)" fill="#dc5734"/>
    <path id="Path_11194" data-name="Path 11194" d="M22.285-127.682a1.028,1.028,0,0,0-.519.325,1,1,0,0,0-.3.581,1.181,1.181,0,0,0,.716,1.293c.175.066.395.069,7.851.069H37.7l.194-.088a1.2,1.2,0,0,0,.679-1.063,1.2,1.2,0,0,0-.679-1.063l-.194-.088-7.635-.007C23.98-127.726,22.4-127.719,22.285-127.682Z" transform="translate(0 -308.306)" fill="#dc5734"/>
  </g>
</svg>
