<svg xmlns="http://www.w3.org/2000/svg" width="14.443" height="14.443" viewBox="0 0 14.443 14.443">
    <g id="settings_1_" data-name="settings (1)" transform="translate(0 0)">
        <path id="Path_1497" data-name="Path 1497" d="M137.061,133.609a3.452,3.452,0,1,0,3.453,3.452A3.456,3.456,0,0,0,137.061,133.609Zm0,6.042a2.589,2.589,0,1,1,2.589-2.589A2.592,2.592,0,0,1,137.061,139.651Zm0,0" transform="translate(-129.84 -129.84)" fill="#757575"/>
        <path id="Path_1498" data-name="Path 1498" d="M14.1,5.577l-1.11-.241a6.041,6.041,0,0,0-.357-.861l.615-.956a.432.432,0,0,0-.058-.538L11.463,1.25a.432.432,0,0,0-.539-.058l-.956.615a6.041,6.041,0,0,0-.861-.357L8.866.34A.432.432,0,0,0,8.444,0H6a.432.432,0,0,0-.422.34L5.336,1.45a6.041,6.041,0,0,0-.861.357l-.956-.615a.432.432,0,0,0-.538.058L1.25,2.98a.432.432,0,0,0-.058.538l.615.956a6.041,6.041,0,0,0-.357.861L.34,5.577A.432.432,0,0,0,0,6V8.444a.432.432,0,0,0,.34.422l1.11.241a6.041,6.041,0,0,0,.357.861l-.615.956a.432.432,0,0,0,.058.538L2.98,13.192a.432.432,0,0,0,.538.058l.956-.615a6.041,6.041,0,0,0,.861.357l.241,1.11a.432.432,0,0,0,.422.34H8.444a.432.432,0,0,0,.422-.34l.241-1.11a6.041,6.041,0,0,0,.861-.357l.956.615a.432.432,0,0,0,.539-.058l1.729-1.729a.432.432,0,0,0,.058-.538l-.615-.956a6.041,6.041,0,0,0,.357-.861l1.11-.241a.432.432,0,0,0,.34-.422V6A.432.432,0,0,0,14.1,5.577ZM13.58,8.1l-1.018.221a.432.432,0,0,0-.324.306,5.178,5.178,0,0,1-.478,1.153.431.431,0,0,0,.013.446l.564.877L11.1,12.336l-.877-.564a.431.431,0,0,0-.445-.013,5.181,5.181,0,0,1-1.153.478.432.432,0,0,0-.306.324L8.1,13.58H6.346l-.221-1.018a.432.432,0,0,0-.306-.324,5.178,5.178,0,0,1-1.153-.478.432.432,0,0,0-.445.013l-.877.564L2.107,11.1l.564-.877a.431.431,0,0,0,.013-.446A5.184,5.184,0,0,1,2.2,8.623a.432.432,0,0,0-.324-.306L.863,8.1V6.346l1.018-.221A.432.432,0,0,0,2.2,5.819a5.178,5.178,0,0,1,.478-1.153.431.431,0,0,0-.013-.446l-.564-.877L3.344,2.107l.877.564a.431.431,0,0,0,.445.013A5.181,5.181,0,0,1,5.819,2.2a.432.432,0,0,0,.306-.324L6.346.863H8.1l.221,1.018a.432.432,0,0,0,.306.324,5.178,5.178,0,0,1,1.153.478.432.432,0,0,0,.446-.013l.877-.564,1.237,1.237-.564.877a.431.431,0,0,0-.013.446,5.178,5.178,0,0,1,.478,1.153.432.432,0,0,0,.324.306l1.018.221Zm0,0" fill="#757575"/>
    </g>
</svg>
