<svg xmlns="http://www.w3.org/2000/svg" width="16.547" height="14.543" viewBox="0 0 16.547 14.543">
  <g id="basket" transform="translate(0 -31)">
    <path id="Path_1468" data-name="Path 1468" d="M324.9,304.868a.484.484,0,0,0,.558-.4l.485-2.909a.485.485,0,0,0-.956-.159l-.485,2.909A.485.485,0,0,0,324.9,304.868Z" transform="translate(-314.011 -261.271)" fill="#757575"/>
    <path id="Path_1469" data-name="Path 1469" d="M143.989,304.471a.485.485,0,0,0,.956-.159l-.485-2.909a.485.485,0,0,0-.956.159Z" transform="translate(-138.86 -261.272)" fill="#757575"/>
    <path id="Path_1470" data-name="Path 1470" d="M16.062,35.848H14.356l-3.733-4.666a.485.485,0,0,0-.757.606l3.248,4.06H3.432l3.248-4.06a.485.485,0,0,0-.757-.606L2.191,35.848H.485A.485.485,0,0,0,0,36.333v1.939a.485.485,0,0,0,.485.485h.6l1.839,6.435a.485.485,0,0,0,.466.352h9.76a.485.485,0,0,0,.466-.352l1.839-6.435h.6a.485.485,0,0,0,.485-.485V36.333a.485.485,0,0,0-.485-.485Zm-3.274,8.726H3.759L2.1,38.756H14.45Zm2.789-6.787H.969v-.97H15.577Z" transform="translate(0 0)" fill="#757575"/>
    <path id="Path_1471" data-name="Path 1471" d="M241.485,304.878a.485.485,0,0,0,.485-.485v-2.909a.485.485,0,0,0-.97,0v2.909A.485.485,0,0,0,241.485,304.878Z" transform="translate(-233.212 -261.274)" fill="#757575"/>
  </g>
</svg>
