<svg xmlns="http://www.w3.org/2000/svg" width="13.954" height="14.543" viewBox="0 0 13.954 14.543">
    <g id="sale" transform="translate(-10.359 0.002)">
        <g id="Group_718" data-name="Group 718" transform="translate(10.359 -0.002)">
            <g id="Group_717" data-name="Group 717" transform="translate(0 0)">
                <path id="Path_1474" data-name="Path 1474" d="M23.64,7.458a.426.426,0,0,1,0-.377l.542-1.11A1.262,1.262,0,0,0,23.638,4.3l-1.091-.579a.426.426,0,0,1-.221-.3L22.112,2.2a1.263,1.263,0,0,0-1.426-1.036l-1.223.173a.426.426,0,0,1-.358-.116L18.218.357a1.262,1.262,0,0,0-1.763,0l-.888.859a.426.426,0,0,1-.358.116l-1.223-.173A1.262,1.262,0,0,0,12.56,2.2l-.213,1.216a.426.426,0,0,1-.221.3L11.034,4.3a1.262,1.262,0,0,0-.545,1.676l.542,1.11a.426.426,0,0,1,0,.377l-.542,1.11a1.262,1.262,0,0,0,.545,1.676l1.091.579a.426.426,0,0,1,.221.3l.213,1.216A1.262,1.262,0,0,0,13.8,13.393a1.3,1.3,0,0,0,.182-.013l1.223-.173a.426.426,0,0,1,.358.116l.888.859a1.262,1.262,0,0,0,1.763,0l.888-.859a.427.427,0,0,1,.358-.116l1.223.173a1.262,1.262,0,0,0,1.426-1.036l.213-1.216a.426.426,0,0,1,.221-.3l1.091-.579a1.262,1.262,0,0,0,.545-1.676Zm-.4,2.045-1.091.579a1.26,1.26,0,0,0-.654.9L21.286,12.2a.427.427,0,0,1-.482.351l-1.223-.173a1.259,1.259,0,0,0-1.059.344l-.888.859a.427.427,0,0,1-.6,0l-.888-.859a1.258,1.258,0,0,0-.878-.357,1.287,1.287,0,0,0-.181.013l-1.223.173a.427.427,0,0,1-.482-.351l-.213-1.217a1.259,1.259,0,0,0-.654-.9L11.427,9.5a.427.427,0,0,1-.184-.567l.542-1.11a1.26,1.26,0,0,0,0-1.113L11.243,5.6a.427.427,0,0,1,.184-.567l1.091-.579a1.26,1.26,0,0,0,.654-.9l.213-1.216a.427.427,0,0,1,.482-.351l1.223.173a1.26,1.26,0,0,0,1.059-.344L17.038.96a.427.427,0,0,1,.6,0l.888.859a1.259,1.259,0,0,0,1.059.344L20.8,1.989a.427.427,0,0,1,.482.351L21.5,3.556a1.259,1.259,0,0,0,.654.9l1.091.579a.427.427,0,0,1,.184.567l-.542,1.11a1.26,1.26,0,0,0,0,1.113l.542,1.11A.427.427,0,0,1,23.245,9.5Z" transform="translate(-10.359 0.002)" fill="#757575"/>
            </g>
        </g>
        <g id="Group_720" data-name="Group 720" transform="translate(14.149 4.082)">
            <g id="Group_719" data-name="Group 719">
                <path id="Path_1475" data-name="Path 1475" d="M150.043,143.914a.419.419,0,0,0-.593,0l-5.536,5.536a.419.419,0,1,0,.593.593l5.536-5.536A.419.419,0,0,0,150.043,143.914Z" transform="translate(-143.792 -143.792)" fill="#757575"/>
            </g>
        </g>
        <g id="Group_722" data-name="Group 722" transform="translate(14.121 3.495)">
            <g id="Group_721" data-name="Group 721">
                <path id="Path_1476" data-name="Path 1476" d="M144.34,123.116a1.538,1.538,0,1,0,1.538,1.538A1.539,1.539,0,0,0,144.34,123.116Zm0,2.237a.7.7,0,1,1,.7-.7A.7.7,0,0,1,144.34,125.353Z" transform="translate(-142.802 -123.116)" fill="#757575"/>
            </g>
        </g>
        <g id="Group_724" data-name="Group 724" transform="translate(17.476 7.969)">
            <g id="Group_723" data-name="Group 723">
                <path id="Path_1477" data-name="Path 1477" d="M262.46,280.61A1.538,1.538,0,1,0,264,282.148,1.539,1.539,0,0,0,262.46,280.61Zm0,2.237a.7.7,0,1,1,.7-.7A.7.7,0,0,1,262.46,282.847Z" transform="translate(-260.922 -280.61)" fill="#757575"/>
            </g>
        </g>
    </g>
</svg>
