<svg xmlns="http://www.w3.org/2000/svg" width="13.432" height="13.433" viewBox="0 0 13.432 13.433">
    <path id="home-run" d="M13.571,5.842h0L8.09.362a1.237,1.237,0,0,0-1.749,0L.865,5.838l-.006.006a1.236,1.236,0,0,0,.823,2.107l.038,0h.218v4.032a1.449,1.449,0,0,0,1.447,1.447H5.53a.394.394,0,0,0,.394-.394V9.878a.661.661,0,0,1,.66-.66H7.848a.661.661,0,0,1,.66.66v3.162a.394.394,0,0,0,.394.394h2.144a1.449,1.449,0,0,0,1.447-1.447V7.953h.2a1.237,1.237,0,0,0,.875-2.111Zm-.557,1.192a.447.447,0,0,1-.318.132h-.6a.394.394,0,0,0-.394.394v4.426a.661.661,0,0,1-.66.66H9.3V9.878A1.449,1.449,0,0,0,7.848,8.43H6.584A1.449,1.449,0,0,0,5.136,9.878v2.768H3.386a.661.661,0,0,1-.66-.66V7.559a.394.394,0,0,0-.394-.394h-.6a.449.449,0,0,1-.31-.767h0L6.9.918a.449.449,0,0,1,.636,0L13.012,6.4l0,0a.451.451,0,0,1,0,.635Zm0,0" transform="translate(-0.5 0.001)" fill="#dc5734"/>
</svg>
