<svg xmlns="http://www.w3.org/2000/svg" width="142.634" height="139.2" viewBox="0 0 142.634 139.2">
  <g id="Group_948" data-name="Group 948" transform="translate(-116.166 -212.6)">
    <path id="Path_1734" data-name="Path 1734" d="M104.7,285.7s-16-9-18.3-26.7,13-21.8,18.3-35.2-4-29.1,6-39.7c10-10.7,20.4,6.4,30,6.2s28.2-33.7,49.3-24c22.4,10.4,2.7,30.8,10.2,44.1s13.5,8.7,19.8,22.7-9.3,50.4-9.3,50.4" transform="translate(30 65)" fill="#c7f8ff" opacity="0.4"/>
    <path id="Path_1735" data-name="Path 1735" d="M156.5,265.7c-45.2,0-58.5,20.7-58.5,20.7H215C214.9,286.3,201.7,265.7,156.5,265.7Z" transform="translate(30 65)" fill="#5ebf9c"/>
    <line id="Line_56" data-name="Line 56" x2="139.8" transform="translate(118.5 351.3)" fill="#fff" stroke="#d5d5d5" stroke-linecap="round" stroke-miterlimit="10" stroke-width="1"/>
    <g id="Group_947" data-name="Group 947" transform="translate(-1573.255 -687.882)">
      <path id="Path_1736" data-name="Path 1736" d="M92.719,196.842h0c4.133,8.156,14.053,18.9,18.241,23.256a2.135,2.135,0,0,0,3.362-.386c3.086-5.235,10.25-17.966,12.4-26.838h0a17.444,17.444,0,0,0,.386-6.338A18.224,18.224,0,1,0,90.9,190.725,17.184,17.184,0,0,0,92.719,196.842Zm21.713-8.818a5.465,5.465,0,1,1-6.062-4.795A5.5,5.5,0,0,1,114.432,188.025Z" transform="translate(1622.956 795)" fill="#ff7171"/>
      <path id="Path_1737" data-name="Path 1737" d="M97.083,195.94h0a18.778,18.778,0,0,1-1.819-6.117A18.187,18.187,0,0,1,106.893,170.7h-.055A18.27,18.27,0,0,0,90.8,190.925a18.777,18.777,0,0,0,1.819,6.117h0c4.133,8.156,14.053,18.9,18.241,23.311a2.135,2.135,0,0,0,3.362-.386,10.808,10.808,0,0,0,.661-1.157C110.53,214.126,101.106,203.821,97.083,195.94Z" transform="translate(1623 794.855)" fill="#f96464"/>
    </g>
    <circle id="Ellipse_88" data-name="Ellipse 88" cx="8" cy="8" r="8" transform="translate(231.194 276.325) rotate(-80.782)" fill="#c7f8ff" opacity="0.4"/>
    <circle id="Ellipse_89" data-name="Ellipse 89" cx="5.2" cy="5.2" r="5.2" transform="translate(117.6 288.8)" fill="#c7f8ff" opacity="0.4"/>
    <path id="Path_1739" data-name="Path 1739" d="M140.7,162.3a1.8,1.8,0,1,1-1.8-1.8A1.793,1.793,0,0,1,140.7,162.3Z" transform="translate(30 65)" fill="#c7f8ff"/>
    <path id="Path_1740" data-name="Path 1740" d="M216.7,218.2a1.8,1.8,0,1,1-1.8-1.8A1.793,1.793,0,0,1,216.7,218.2Z" transform="translate(30 65)" fill="#c7f8ff" opacity="0.4"/>
    <circle id="Ellipse_90" data-name="Ellipse 90" cx="1.3" cy="1.3" r="1.3" transform="translate(243.6 255.6)" fill="#c7f8ff" opacity="0.4"/>
    <circle id="Ellipse_91" data-name="Ellipse 91" cx="1.3" cy="1.3" r="1.3" transform="translate(117.2 300.7)" fill="#c7f8ff" opacity="0.4"/>
    <path id="Path_1741" data-name="Path 1741" d="M209,191.6a3.3,3.3,0,1,1-3.3-3.3A3.329,3.329,0,0,1,209,191.6Z" transform="translate(30 65)" fill="#c7f8ff" opacity="0.4"/>
    <path id="Path_1742" data-name="Path 1742" d="M110.9,278.3s-9.1-2.7-7.5-5.8c1.3-2.4,5.5,1.7,5.5,1.7s-4.9-4.8-2.9-6.8c2.6-2.5,4.8,5.7,4.8,5.7s-1.7-6,.8-6.2c3.3-.3,1.9,9.8,1.9,9.8" transform="translate(30 65)" fill="#5ebf9c"/>
    <path id="Path_1743" data-name="Path 1743" d="M124.4,271.9s-5.7-3.9-3.9-5.7c1.4-1.4,3.4,2.4,3.4,2.4s-2.4-4.4-.5-5.3c2.3-1.2,2.1,5,2.1,5s.1-4.5,1.9-4.1c2.3.5-.8,7.2-.8,7.2" transform="translate(30 65)" fill="#5ebf9c"/>
    <g id="Group_946" data-name="Group 946" transform="translate(-124.289 -39.885)">
      <g id="XMLID_33_" transform="translate(325.018 373.322)">
        <g id="XMLID_34_" transform="translate(0 0)">
          <path id="Path_1709" data-name="Path 1709" d="M348.865,393.67a8.78,8.78,0,0,1,.528,2.112,4.364,4.364,0,0,1,.176,2.288,4.474,4.474,0,0,1-2.64,2.024,5.646,5.646,0,0,1-4.577-.88c-1.584-.968-2.816-2.112-5.1-2.816a10.7,10.7,0,0,1-4.489-2.024c-1.232-1.056-2.992-3.785-.528-4.489,2.464-.616,7.657,1.672,12.5,1.848Z" transform="translate(-330.99 -389.781)" fill="#263238"/>
        </g>
      </g>
      <g id="XMLID_30_" transform="translate(337.26 374.043)">
        <path id="Path_1710" data-name="Path 1710" d="M350.269,390.6s.264,3.344.264,3.785c0,1.144-4.225,2.64-4.929,0l-.7-3.609Z" transform="translate(-344.9 -390.6)" fill="#f28f8f"/>
      </g>
      <path id="Path_1711" data-name="Path 1711" d="M343.666,306.8a59.494,59.494,0,0,1,3.961,6.6s.44,4.929.44,8.185c0,5.985-.968,10.65-1.76,22.443a17.112,17.112,0,0,1,2.288,7.657c.352,5.369.352,5.281.352,29.924a6.848,6.848,0,0,1-5.281.528l-7.921-34.5-.88-13.554-2.464-16.81Z" transform="translate(-6.141 -6.511)" fill="#37474f"/>
      <g id="XMLID_28_" transform="translate(299.904 381.229)">
        <g id="XMLID_29_" transform="translate(0 0)">
          <path id="Path_1712" data-name="Path 1712" d="M321.329,400.908c.264.264.176.88.352,1.848a5.173,5.173,0,0,1,.088,2.288,4.616,4.616,0,0,1-2.376,2.376,5.527,5.527,0,0,1-4.665-.352,17.537,17.537,0,0,0-5.369-2.112,10.765,10.765,0,0,1-4.753-1.5c-1.408-.88-3.432-3.432-1.056-4.4s8.185.792,12.938.352Z" transform="translate(-302.456 -398.764)" fill="#263238"/>
        </g>
      </g>
      <g id="XMLID_27_" transform="translate(313.585 378.18)">
        <path id="Path_1713" data-name="Path 1713" d="M324.249,396.268s-.88,3.872-1.144,4.665c-.528,2.024-5.1,2.2-5.1-.176l.264-5.457Z" transform="translate(-318 -395.3)" fill="#f28f8f"/>
      </g>
      <path id="Path_1714" data-name="Path 1714" d="M331.666,308c2.288,4.489,4.489,8.449,4.577,13.2.176,10.121-4.049,21.211-5.545,28.516a30.731,30.731,0,0,1,.352,8.009c-.264,3.08-7.3,30.8-7.3,30.8s-3.873.792-5.545-.968l1.936-53.423.528-15.49Z" transform="translate(-4.439 -6.655)" fill="#37474f"/>
      <g id="XMLID_26_" transform="translate(324.058 272.389)">
        <path id="Path_1715" data-name="Path 1715" d="M329.9,276.684l1.5,7.921,7.129-.528-1.5-8.977Z" transform="translate(-329.9 -275.1)" fill="#ffa8a7"/>
      </g>
      <g id="XMLID_25_" transform="translate(316.313 276.801)">
        <path id="Path_1716" data-name="Path 1716" d="M345.039,284.15c-.7-2.2-3.432-4.489-6.161-3.961a83.727,83.727,0,0,0-11.97,2.992c-2.552.88-4.753,3.08-5.017,11.354l-.792,20.771a9.315,9.315,0,0,0,3.784,2.024,21.019,21.019,0,0,0,12.146.44c7.569-1.672,9.329-6.249,9.329-6.249s-.264-11-.528-16.986C345.655,289.343,345.567,285.646,345.039,284.15Z" transform="translate(-321.1 -280.113)" fill="#455a64"/>
      </g>
      <path id="Path_1717" data-name="Path 1717" d="M320.978,264.042,284.453,254.1c-3.344-.528-4.665,7.481-1.408,8.1l37.581,3.784Z" transform="translate(0 -0.19)" fill="#263238"/>
      <path id="Path_1718" data-name="Path 1718" d="M312.34,281.215l-7.481.264s1.144-11.09,1.848-12.586,2.376-1.76,4.049-2.2,1.672-1.232,1.672-1.232l-1.5-.176a1.88,1.88,0,0,1-1.232-2.816c.264-.528.7-1.32,1.5-1.144s1.936.528,1.936.528a4.824,4.824,0,0,0-.616-2.464c-.616-.7-1.144-.528-2.376-.968-.968-.352-2.992-.968-4.577-.264s-2.816,3.7-3.256,5.809a41.541,41.541,0,0,1-2.024,7.217c-1.408,3.961-3.52,12.058-3.785,15.314-.088,1.5.088,2.376,1.76,2.816s13.994.44,13.994.44Z" transform="translate(-1.835 -0.641)" fill="#ffa8a7"/>
      <g id="XMLID_24_" transform="translate(317.254 264.556)">
        <path id="Path_1719" data-name="Path 1719" d="M323.693,266.2s-1.76,2.552-1.5,2.816a5.389,5.389,0,0,0,1.32.616Z" transform="translate(-322.169 -266.2)" fill="#ffa8a7"/>
      </g>
      <g id="XMLID_23_" transform="translate(318.41 255.764)">
        <path id="Path_1720" data-name="Path 1720" d="M329.131,256.905c-1.672.88-4.577,2.376-5.369,8.537-.792,6.249.264,8.273,1.144,9.153.616.528,3.7.616,5.281.088,1.936-.616,6.337-2.288,8.361-5.457,2.376-3.785,2.9-8.889.264-10.914C335.027,255.409,330.539,256.113,329.131,256.905Z" transform="translate(-323.483 -256.21)" fill="#ffa8a7"/>
      </g>
      <path id="Path_1721" data-name="Path 1721" d="M335.5,341.042l3.784-10.737a19.133,19.133,0,0,0,7.745-5.1s-.88,3.08-6.865,6.249l-4.137,10.209v5.633Z" transform="translate(-6.513 -8.717)" fill="#263238"/>
      <g id="XMLID_21_" transform="translate(317.96 252.485)">
        <g id="XMLID_22_" transform="translate(0)">
          <path id="Path_1722" data-name="Path 1722" d="M323.348,258.483c.528,1.5,1.5,5.193,5.369,6.777,0,0,.528-2.376,2.552-2.112s2.288,2.816,1.144,4.313c-1.232,1.584-2.376.968-2.376.968s-.264,3.344,2.024,4.929a6.327,6.327,0,0,0,5.633.44c1.32-.616,3.168-3.7,4.225-6.249,2.288-5.369,2.64-9.681-.88-11.09-.44-2.464-1.5-3.344-3.785-3.785-4.753-.968-8.361,2.112-12.41,1.584C322.644,253.994,322.732,256.811,323.348,258.483Z" transform="translate(-322.971 -252.484)" fill="#263238"/>
        </g>
      </g>
      <g id="XMLID_19_" transform="translate(335.761 255.311)">
        <g id="XMLID_20_" transform="translate(0)">
          <path id="Path_1723" data-name="Path 1723" d="M343.375,257.724l2.288-1.408a1.343,1.343,0,1,0-2.288,1.408Z" transform="translate(-343.196 -255.696)" fill="#263238"/>
        </g>
      </g>
      <path id="Path_1724" data-name="Path 1724" d="M312.312,284.116s10.561-.616,13.29-.616,5.545,4.577,3.873,7.657c-1.144,2.024-4.577,2.728-8.889,2.992-4.313.176-8.713.176-8.713.176S307.823,289.925,312.312,284.116Z" transform="translate(-3.48 -3.718)" fill="#455a64"/>
      <path id="Path_1725" data-name="Path 1725" d="M321.988,295.192s6.689-.088,8.8-2.992a5.09,5.09,0,0,1-3.08,2.816,17.7,17.7,0,0,1-5.809,1.232Z" transform="translate(-4.883 -4.761)" fill="#37474f"/>
      <path id="Path_1726" data-name="Path 1726" d="M284.453,254.1c-3.344-.528-4.665,7.481-1.408,8.1l5.281.528c-2.112-.176-.616-7.745.968-7.3h0Z" transform="translate(0 -0.19)" fill="#455a64"/>
    </g>
  </g>
</svg>
