<svg xmlns="http://www.w3.org/2000/svg" width="26" height="27" viewBox="0 0 26 27">
  <rect id="Rectangle_199" data-name="Rectangle 199" width="26" height="27" rx="6" fill="#f63c30"/>
  <g id="logout_1_" data-name="logout (1)" transform="translate(7 6.996)">
    <path id="Path_1495" data-name="Path 1495" d="M8.866,7.688a.591.591,0,0,0-.591.591v2.364a.592.592,0,0,1-.591.591H5.911V2.368a1.191,1.191,0,0,0-.8-1.124l-.175-.059H7.684a.592.592,0,0,1,.591.591V3.55a.591.591,0,0,0,1.182,0V1.777A1.775,1.775,0,0,0,7.684,0H1.33a.464.464,0,0,0-.063.013C1.238.014,1.211,0,1.182,0A1.183,1.183,0,0,0,0,1.186V11.825a1.191,1.191,0,0,0,.8,1.124l3.557,1.186a1.224,1.224,0,0,0,.366.055,1.183,1.183,0,0,0,1.182-1.182v-.591H7.684a1.775,1.775,0,0,0,1.773-1.773V8.279a.591.591,0,0,0-.591-.591Zm0,0" fill="#fff"/>
    <path id="Path_1496" data-name="Path 1496" d="M283.661,109.2l-2.364-2.364a.591.591,0,0,0-1.009.418v1.773h-2.364a.591.591,0,1,0,0,1.182h2.364v1.773a.591.591,0,0,0,1.009.418l2.364-2.364A.59.59,0,0,0,283.661,109.2Zm0,0" transform="translate(-269.648 -103.707)" fill="#fff"/>
  </g>
</svg>
