<svg xmlns="http://www.w3.org/2000/svg" width="26" height="27" viewBox="0 0 26 27">
  <g id="Group_1064" data-name="Group 1064" transform="translate(-36 -343)">
    <rect id="Rectangle_202" data-name="Rectangle 202" width="26" height="27" rx="6" transform="translate(36 343)" fill="#4cd966"/>
    <g id="home_5_" data-name="home (5)" transform="translate(-14.67 349)">
      <path id="Path_10802" data-name="Path 10802" d="M64.137,0A5.473,5.473,0,0,0,58.67,5.467c0,1.7.877,3.665,2.607,5.853a23.308,23.308,0,0,0,2.566,2.754.444.444,0,0,0,.587,0A23.309,23.309,0,0,0,67,11.321C68.727,9.132,69.6,7.163,69.6,5.467A5.473,5.473,0,0,0,64.137,0ZM61.7,7.758v-1.9a.139.139,0,0,0-.229-.105l-.148.127a.443.443,0,0,1-.577-.673l3.1-2.66a.443.443,0,0,1,.577,0l3.1,2.66a.443.443,0,1,1-.577.673L66.8,5.751a.139.139,0,0,0-.229.105v1.9a.443.443,0,0,1-.443.443h-3.99A.443.443,0,0,1,61.7,7.758Z" fill="#fff"/>
      <path id="Path_10803" data-name="Path 10803" d="M200,128.006v2.317a.139.139,0,0,0,.139.139h2.826a.139.139,0,0,0,.139-.139v-2.317a.139.139,0,0,0-.048-.105l-1.413-1.211a.139.139,0,0,0-.18,0l-1.413,1.211A.138.138,0,0,0,200,128.006Z" transform="translate(-137.414 -123.147)" fill="#fff"/>
    </g>
  </g>
</svg>
