<svg xmlns="http://www.w3.org/2000/svg" width="82.485" height="93.394" viewBox="0 0 82.485 93.394">
    <g id="box" transform="translate(-29.904)">
        <path id="Path_10511" data-name="Path 10511" d="M112.378,108.869a2.576,2.576,0,0,0-1.763-2.25l-8.1-2.742,7.883-9.044a2.609,2.609,0,0,0-.724-4.008l-10.17-5.51a1.368,1.368,0,1,0-1.3,2.406l10.03,5.434-8.4,9.638L73.3,88.416l4.923-5.648a5.284,5.284,0,0,0,6.43-2.389l7.6,4.119a1.368,1.368,0,1,0,1.3-2.406l-8.238-4.463a5.285,5.285,0,1,0-9.344,3.552l-4.831,5.542L62.587,76.9a2.594,2.594,0,0,0-3.209-.58l-3.346,1.813a6.3,6.3,0,1,0-10.324,5.593L32.614,90.825a2.609,2.609,0,0,0-.724,4.008l7.883,9.044-8.1,2.742a2.609,2.609,0,0,0-.406,4.765l9.509,5.152V121.7a1.368,1.368,0,0,0,2.736,0v-3.681l13.3,7.207a3.861,3.861,0,0,0,3.068.262l9.892-3.349v27.22L44.1,135.443a1.112,1.112,0,0,1-.583-.979v-6.012a1.368,1.368,0,0,0-2.736,0v6.012a3.846,3.846,0,0,0,2.015,3.384l26.518,14.368a3.837,3.837,0,0,0,3.668,0L99.5,137.849a3.846,3.846,0,0,0,2.015-3.384V116.535l9.508-5.152a2.575,2.575,0,0,0,1.356-2.515ZM74.17,98.285A11.193,11.193,0,0,1,82.3,109.024a11.065,11.065,0,0,1-.741,4.006l-10.417,5.644L60.729,113.03a11.069,11.069,0,0,1-.741-4.006,11.188,11.188,0,0,1,8.165-10.749,1.368,1.368,0,0,0-.733-2.636,13.9,13.9,0,0,0-9.991,15.6l-12.411-6.724L71.146,90.362l26.127,14.156-12.411,6.724a13.9,13.9,0,0,0-9.952-15.592,1.368,1.368,0,0,0-.741,2.634Zm5.869-23.03a2.55,2.55,0,1,1-2.55,2.55A2.553,2.553,0,0,1,80.039,75.254Zm-30.256.113a3.564,3.564,0,1,1-3.564,3.564A3.568,3.568,0,0,1,49.784,75.368Zm-.965,9.79a6.3,6.3,0,0,0,6.7-3.633l5.068-2.746,8.4,9.637L42.458,102.793l-8.4-9.638ZM59.009,122.9a1.116,1.116,0,0,1-.887-.076l-15.317-8.3-.012-.007-9.962-5.4,9.19-3.112L67.738,119.94Zm39.768,11.569a1.113,1.113,0,0,1-.583.979l-25.68,13.914v-27.22l9.892,3.349a3.862,3.862,0,0,0,3.068-.262l13.3-7.207v16.447ZM84.171,122.82a1.116,1.116,0,0,1-.887.076l-8.729-2.956,25.718-13.934,9.19,3.112Zm25.568-13.609h0Z" transform="translate(0 -59.29)" fill="#bfbfbf"/>
        <path id="Path_10512" data-name="Path 10512" d="M294.81,423.942l-3.138,1.7a1.368,1.368,0,1,0,1.3,2.406l3.138-1.7a1.368,1.368,0,0,0-1.3-2.406Z" transform="translate(-213.432 -346.475)" fill="#bfbfbf"/>
        <path id="Path_10513" data-name="Path 10513" d="M165.9,33.9a1.368,1.368,0,0,0,1.935,0l1.129-1.129L170.09,33.9a1.368,1.368,0,1,0,1.935-1.935L170.9,30.839l1.129-1.129a1.368,1.368,0,0,0-1.935-1.935L168.962,28.9l-1.129-1.129a1.368,1.368,0,0,0-1.935,1.935l1.129,1.129L165.9,31.968A1.368,1.368,0,0,0,165.9,33.9Z" transform="translate(-110.86 -22.382)" fill="#bfbfbf"/>
        <path id="Path_10514" data-name="Path 10514" d="M387.938,83.033a1.368,1.368,0,0,0,1.935,0L391,81.9l1.129,1.129a1.368,1.368,0,1,0,1.935-1.935l-1.129-1.129,1.129-1.129a1.368,1.368,0,1,0-1.935-1.935L391,78.035l-1.129-1.129a1.368,1.368,0,0,0-1.935,1.935l1.129,1.129L387.939,81.1A1.368,1.368,0,0,0,387.938,83.033Z" transform="translate(-292.397 -62.55)" fill="#bfbfbf"/>
        <path id="Path_10515" data-name="Path 10515" d="M321.612,11.921a5.96,5.96,0,1,0-5.96-5.96A5.967,5.967,0,0,0,321.612,11.921Zm0-9.185a3.224,3.224,0,1,1-3.224,3.224,3.228,3.228,0,0,1,3.224-3.224Z" transform="translate(-233.625)" fill="#bfbfbf"/>
        <path id="Path_10516" data-name="Path 10516" d="M237.264,280.513a5.423,5.423,0,0,0-3.5,1.232,1.368,1.368,0,0,0,1.764,2.092,2.727,2.727,0,0,1,1.741-.588h.009a2.73,2.73,0,0,1,1.747.6,1.368,1.368,0,0,0,1.776-2.081,5.425,5.425,0,0,0-3.515-1.253Z" transform="translate(-166.272 -229.344)" fill="#bfbfbf"/>
        <path id="Path_10517" data-name="Path 10517" d="M217.218,258.3h-.013a1.359,1.359,0,0,0-1.371,1.359,1.374,1.374,0,0,0,1.365,1.378h.01a1.368,1.368,0,0,0,.009-2.736Z" transform="translate(-152.014 -211.186)" fill="#bfbfbf"/>
        <path id="Path_10518" data-name="Path 10518" d="M282.253,261.012l.014,0c.039.008.079.014.12.018l.039,0c.031,0,.061,0,.092.005h.01a1.352,1.352,0,0,0,.139-.007,1.368,1.368,0,0,0,.027-2.718l-.018,0c-.031,0-.063,0-.1-.006l-.044,0h-.022a1.367,1.367,0,0,0-.263,2.708Z" transform="translate(-205.419 -211.186)" fill="#bfbfbf"/>
    </g>
</svg>
