<?xml version="1.0" standalone="no"?>
<!DOCTYPE svg PUBLIC "-//W3C//DTD SVG 20010904//EN"
 "http://www.w3.org/TR/2001/REC-SVG-20010904/DTD/svg10.dtd">
<svg version="1.0" xmlns="http://www.w3.org/2000/svg"
 width="200.000000pt" height="200.000000pt" viewBox="0 0 200.000000 200.000000"
 preserveAspectRatio="xMidYMid meet">
<metadata>
Created by potrace 1.16, written by Peter Selinger 2001-2019
</metadata>
<g transform="translate(0.000000,200.000000) scale(0.100000,-0.100000)"
fill="#000000" stroke="none">
<path d="M166 1560 c-16 -5 -40 -19 -53 -32 -53 -49 -53 -49 -53 -450 0 -344
1 -376 19 -408 23 -45 85 -81 131 -78 31 3 35 6 35 32 0 26 -5 31 -35 38 -19
5 -45 20 -57 34 -20 21 -23 36 -23 100 l0 74 605 0 605 0 0 -105 0 -105 -309
0 -309 0 -11 33 c-24 72 -96 121 -181 121 -65 1 -108 -21 -154 -77 -28 -35
-31 -45 -31 -111 0 -64 3 -77 29 -110 53 -70 127 -97 205 -76 52 14 116 70
131 116 l12 34 358 0 358 0 7 -31 c10 -47 73 -104 130 -118 100 -25 208 32
230 122 6 24 11 26 68 29 l62 3 3 196 2 195 -112 145 c-62 79 -117 147 -122
151 -6 4 -75 8 -153 8 l-143 0 0 75 c0 92 -16 133 -66 171 l-37 29 -556 2
c-306 1 -569 -2 -585 -7z m1145 -98 l29 -32 0 -245 0 -245 -605 0 -605 0 0
240 c0 270 4 292 63 309 19 6 249 9 560 8 l529 -2 29 -33z m461 -382 l98 -125
0 -147 0 -148 -29 0 c-25 0 -31 5 -36 31 -4 17 -24 48 -45 69 -75 75 -195 75
-271 -1 -20 -20 -40 -51 -44 -68 -4 -17 -13 -31 -21 -31 -12 0 -14 44 -14 275
l0 276 132 -3 132 -3 98 -125z m-1176 -356 c96 -63 52 -214 -61 -214 -20 0
-49 7 -64 15 -28 14 -61 68 -61 100 0 31 32 85 59 100 35 19 96 19 127 -1z
m1110 -18 c29 -29 34 -41 34 -81 0 -40 -5 -52 -34 -81 -29 -29 -41 -34 -81
-34 -40 0 -52 5 -81 34 -29 29 -34 41 -34 81 0 40 5 52 34 81 29 29 41 34 81
34 40 0 52 -5 81 -34z"/>
<path d="M250 1419 c-10 -18 -1 -30 76 -110 l88 -89 -88 -90 c-61 -62 -86 -95
-82 -106 3 -8 6 -18 6 -20 0 -2 12 -4 27 -4 21 0 47 20 110 82 l83 82 89 -88
c80 -77 92 -86 110 -76 39 20 25 51 -61 137 l-83 83 84 84 c65 65 82 88 79
107 -2 16 -11 25 -27 27 -19 3 -42 -14 -107 -79 l-84 -84 -83 83 c-86 86 -117
100 -137 61z"/>
<path d="M1472 1148 c-15 -15 -16 -201 -2 -229 10 -18 23 -19 169 -19 128 0
161 3 171 15 17 21 10 35 -82 146 l-82 99 -81 0 c-50 0 -86 -5 -93 -12z"/>
</g>
</svg>
