<svg xmlns="http://www.w3.org/2000/svg" width="26" height="27" viewBox="0 0 26 27">
  <rect id="Rectangle_206" data-name="Rectangle 206" width="26" height="27" rx="6" fill="#3179ff"/>
  <path id="padlock" d="M16,6.244h-.619V4.163C15.384,1.867,13.162,0,10.43,0S5.477,1.867,5.477,4.163V6.244H4.858A1.731,1.731,0,0,0,3,7.8v7.284A1.731,1.731,0,0,0,4.858,16.65H16a1.731,1.731,0,0,0,1.858-1.561V7.8A1.731,1.731,0,0,0,16,6.244ZM7.128,4.163a3.076,3.076,0,0,1,3.3-2.775,3.076,3.076,0,0,1,3.3,2.775V6.244h-6.6ZM11.256,11.6v1.58a.768.768,0,0,1-.826.694.768.768,0,0,1-.826-.694V11.6a1.364,1.364,0,0,1-.826-1.195A1.538,1.538,0,0,1,10.43,9.019a1.538,1.538,0,0,1,1.651,1.388A1.364,1.364,0,0,1,11.256,11.6Z" transform="translate(2.57 4.175)" fill="#fff"/>
</svg>
