<svg id="qr-code" xmlns="http://www.w3.org/2000/svg" width="20.948" height="20.948" viewBox="0 0 20.948 20.948">
    <path id="Path_10435" data-name="Path 10435" d="M1.227,1.227H4.91V0H0V4.91H1.227Zm0,0" fill="#a7a7a7"/>
    <path id="Path_10436" data-name="Path 10436" d="M392,0V1.227h3.682V4.91h1.227V0Zm0,0" transform="translate(-375.962)" fill="#a7a7a7"/>
    <path id="Path_10437" data-name="Path 10437" d="M395.682,395.682H392v1.227h4.91V392h-1.227Zm0,0" transform="translate(-375.962 -375.962)" fill="#a7a7a7"/>
    <path id="Path_10438" data-name="Path 10438" d="M1.227,392H0v4.91H4.91v-1.227H1.227Zm0,0" transform="translate(0 -375.962)" fill="#a7a7a7"/>
    <path id="Path_10439" data-name="Path 10439" d="M61,60v6.137h6.137V62.455h1.227V61.227H67.137V60Zm4.91,4.91H62.227V61.227H65.91Zm0,0" transform="translate(-58.504 -57.545)" fill="#a7a7a7"/>
    <path id="Path_10440" data-name="Path 10440" d="M278.364,277.364v-6.137H275.91V270h-1.227v1.227H271v1.227h1.227v1.227H271v1.227h1.227v2.455Zm-4.91-4.91h3.682v3.682h-3.682Zm0,0" transform="translate(-259.912 -258.953)" fill="#a7a7a7"/>
    <path id="Path_10441" data-name="Path 10441" d="M64.682,241.227h2.455V240H61v1.227h2.455v1.227H62.227v1.227h1.227v2.455H62.227v1.227h1.227v1.227h6.137v-1.227H68.364v-1.227H67.137v1.227H64.682v-1.227H65.91V244.91H64.682Zm0,0" transform="translate(-58.504 -230.181)" fill="#a7a7a7"/>
    <path id="Path_10442" data-name="Path 10442" d="M121,120h1.227v1.227H121Zm0,0" transform="translate(-116.049 -115.09)" fill="#a7a7a7"/>
    <path id="Path_10443" data-name="Path 10443" d="M361,120h1.227v1.227H361Zm0,0" transform="translate(-346.23 -115.09)" fill="#a7a7a7"/>
    <path id="Path_10444" data-name="Path 10444" d="M304.682,66.137h2.455V60H301v6.137h2.455v1.227h1.227Zm-2.455-1.227V61.227h3.682V64.91Zm0,0" transform="translate(-288.685 -57.545)" fill="#a7a7a7"/>
    <path id="Path_10445" data-name="Path 10445" d="M393.455,241.227V240H391v1.227Zm0,0" transform="translate(-375.003 -230.181)" fill="#a7a7a7"/>
    <path id="Path_10446" data-name="Path 10446" d="M361,360h1.227v1.227H361Zm0,0" transform="translate(-346.23 -345.271)" fill="#a7a7a7"/>
    <path id="Path_10447" data-name="Path 10447" d="M241,330h1.227v1.227H241Zm0,0" transform="translate(-231.14 -316.498)" fill="#a7a7a7"/>
    <path id="Path_10448" data-name="Path 10448" d="M181,302.455h1.227V300H181Zm0,0" transform="translate(-173.595 -287.726)" fill="#a7a7a7"/>
    <path id="Path_10449" data-name="Path 10449" d="M211,270h1.227v1.227H211Zm0,0" transform="translate(-202.367 -258.953)" fill="#a7a7a7"/>
    <path id="Path_10450" data-name="Path 10450" d="M62.227,330H61v2.455h1.227Zm0,0" transform="translate(-58.504 -316.498)" fill="#a7a7a7"/>
    <path id="Path_10451" data-name="Path 10451" d="M61,420h1.227v1.227H61Zm0,0" transform="translate(-58.504 -402.816)" fill="#a7a7a7"/>
    <path id="Path_10452" data-name="Path 10452" d="M241,60h1.227v1.227H241Zm0,0" transform="translate(-231.14 -57.545)" fill="#a7a7a7"/>
    <path id="Path_10453" data-name="Path 10453" d="M241,122.455h1.227V120H241Zm0,0" transform="translate(-231.14 -115.09)" fill="#a7a7a7"/>
    <path id="Path_10454" data-name="Path 10454" d="M242.227,211.227V210H241v2.455h4.91v-1.227Zm0,0" transform="translate(-231.14 -201.408)" fill="#a7a7a7"/>
</svg>
