<?xml version="1.0" standalone="no"?>
<!DOCTYPE svg PUBLIC "-//W3C//DTD SVG 20010904//EN"
 "http://www.w3.org/TR/2001/REC-SVG-20010904/DTD/svg10.dtd">
<svg version="1.0" xmlns="http://www.w3.org/2000/svg"
 width="512.000000pt" height="512.000000pt" viewBox="0 0 512.000000 512.000000"
 preserveAspectRatio="xMidYMid meet">

<g transform="translate(0.000000,512.000000) scale(0.100000,-0.100000)"
fill="#000000" stroke="none">
<path d="M0 2560 l0 -2560 2560 0 2560 0 0 2560 0 2560 -2560 0 -2560 0 0
-2560z m2100 1210 l0 -750 -750 0 -750 0 0 750 0 750 750 0 750 0 0 -750z
m2420 0 l0 -750 -750 0 -750 0 0 750 0 750 750 0 750 0 0 -750z m-1810 330 l0
-150 -150 0 -150 0 0 150 0 150 150 0 150 0 0 -150z m0 -600 l0 -150 -150 0
-150 0 0 150 0 150 150 0 150 0 0 -150z m0 -635 l0 -155 150 0 150 0 0 -150 0
-150 -150 0 -150 0 0 -155 0 -155 305 0 305 0 0 -300 0 -300 300 0 300 0 0
-300 0 -300 150 0 150 0 0 300 0 300 150 0 150 0 0 -450 0 -450 -750 0 -750 0
0 300 0 300 -155 0 -155 0 0 -300 0 -300 -150 0 -150 0 0 450 0 450 305 0 305
0 0 150 0 150 -305 0 -305 0 0 305 0 305 -230 0 -230 0 0 150 0 150 230 0 230
0 0 155 0 155 150 0 150 0 0 -155z m-1060 -305 l0 -150 -520 0 -520 0 0 150 0
150 520 0 520 0 0 -150z m1960 0 l0 -150 -150 0 -150 0 0 150 0 150 150 0 150
0 0 -150z m910 -305 l0 -455 -150 0 -150 0 0 305 0 305 -150 0 -150 0 0 150 0
150 300 0 300 0 0 -455z m-2420 -905 l0 -750 -750 0 -750 0 0 750 0 750 750 0
750 0 0 -750z m1820 600 l0 -150 -150 0 -150 0 0 150 0 150 150 0 150 0 0
-150z"/>
<path d="M900 3770 l0 -450 450 0 450 0 0 450 0 450 -450 0 -450 0 0 -450z
m600 0 l0 -150 -150 0 -150 0 0 150 0 150 150 0 150 0 0 -150z"/>
<path d="M3320 3770 l0 -450 450 0 450 0 0 450 0 450 -450 0 -450 0 0 -450z
m600 0 l0 -150 -150 0 -150 0 0 150 0 150 150 0 150 0 0 -150z"/>
<path d="M3320 1050 l0 -150 150 0 150 0 0 150 0 150 -150 0 -150 0 0 -150z"/>
<path d="M900 1350 l0 -450 450 0 450 0 0 450 0 450 -450 0 -450 0 0 -450z
m600 0 l0 -150 -150 0 -150 0 0 150 0 150 150 0 150 0 0 -150z"/>
</g>
</svg>
