<svg xmlns="http://www.w3.org/2000/svg" width="13.814" height="14.186" viewBox="0 0 13.814 14.186">
  <g id="settings" transform="translate(-6.71)">
    <g id="Group_781" data-name="Group 781" transform="translate(6.71)">
      <path id="Path_1494" data-name="Path 1494" d="M20.285,8.647l-1.3-1.02a5.133,5.133,0,0,0,.031-.536,4.979,4.979,0,0,0-.031-.536l1.305-1.02a.639.639,0,0,0,.154-.814L19.084,2.376a.629.629,0,0,0-.784-.282l-1.539.618a5.275,5.275,0,0,0-.924-.536L15.6.544A.628.628,0,0,0,14.977,0H12.258a.626.626,0,0,0-.625.539L11.4,2.177a5.438,5.438,0,0,0-.922.536L8.933,2.094a.641.641,0,0,0-.778.277L6.8,4.72a.636.636,0,0,0,.154.819l1.3,1.02a4.677,4.677,0,0,0,0,1.07L6.95,8.649a.639.639,0,0,0-.154.814l1.356,2.346a.627.627,0,0,0,.784.282l1.539-.618a5.322,5.322,0,0,0,.923.536l.234,1.631a.627.627,0,0,0,.627.545h2.719a.627.627,0,0,0,.626-.539l.235-1.637a5.463,5.463,0,0,0,.922-.537l1.543.619a.635.635,0,0,0,.232.044.624.624,0,0,0,.547-.32l1.362-2.358A.638.638,0,0,0,20.285,8.647Zm-6.667.81a2.364,2.364,0,1,1,2.364-2.364A2.367,2.367,0,0,1,13.618,9.457Z" transform="translate(-6.71)" fill="#fff"/>
    </g>
  </g>
</svg>
