<svg xmlns="http://www.w3.org/2000/svg" width="12.812" height="14.813" viewBox="0 0 12.812 14.813">
  <g id="shopping-bag-_5_" transform="translate(-48.528 496.015)">
    <path id="Path_10995" data-name="Path 10995" d="M54.458-495.969a2.454,2.454,0,0,0-1.742,1.359,2.536,2.536,0,0,0-.161.408l-.04.164h-.9c-.995,0-1.112.015-1.449.195a1.507,1.507,0,0,0-.726.964c-.019.083-.238,2.113-.485,4.51a37.006,37.006,0,0,0-.417,4.64,2.84,2.84,0,0,0,.791,1.662,2.836,2.836,0,0,0,1.344.794l.263.071h8l.263-.071a2.891,2.891,0,0,0,2.067-2.067c.127-.494.133-.389-.349-5.029-.247-2.379-.457-4.374-.47-4.433a1.534,1.534,0,0,0-.562-.927c-.377-.281-.522-.309-1.64-.309h-.887l-.04-.164a2.569,2.569,0,0,0-1.007-1.4A2.544,2.544,0,0,0,54.458-495.969Zm.834.989a1.565,1.565,0,0,1,.955.751,1.513,1.513,0,0,1,.08.176c0,.009-.624.015-1.39.015s-1.39-.006-1.39-.015a1.588,1.588,0,0,1,.331-.513A1.465,1.465,0,0,1,55.292-494.98Zm3.868,1.965a.561.561,0,0,1,.275.247c.062.12.948,8.7.924,8.931a1.892,1.892,0,0,1-1.424,1.6,28.375,28.375,0,0,1-4,.062,28.374,28.374,0,0,1-4-.062,1.892,1.892,0,0,1-1.424-1.6c-.022-.191.853-8.711.911-8.891a.571.571,0,0,1,.278-.287C50.816-493.059,59.042-493.062,59.16-493.015Z" fill="#dc5734"/>
    <path id="Path_10996" data-name="Path 10996" d="M176.39-335.651a.533.533,0,0,0-.281.346,1.351,1.351,0,0,0,0,.318,2.472,2.472,0,0,0,1.121,1.857,2.232,2.232,0,0,0,1.338.386,2.232,2.232,0,0,0,1.338-.386,2.4,2.4,0,0,0,1.115-1.968c0-.306-.028-.38-.21-.516a.559.559,0,0,0-.531,0c-.161.12-.2.207-.232.485a1.486,1.486,0,0,1-.466,1,1.463,1.463,0,0,1-2.026,0,1.486,1.486,0,0,1-.466-1c-.028-.275-.071-.368-.226-.482A.572.572,0,0,0,176.39-335.651Z" transform="translate(-123.631 -155.378)" fill="#dc5734"/>
  </g>
</svg>
