<svg xmlns="http://www.w3.org/2000/svg" width="14.84" height="14.813" viewBox="0 0 14.84 14.813">
  <g id="user_3" transform="translate(0.3 511.657)">
    <path id="Path_11173" data-name="Path 11173" d="M6.758-511.649l-.316.043A4.4,4.4,0,0,0,4.3-510.6a4.4,4.4,0,0,0-1.407,2.533,5.753,5.753,0,0,0,.014,1.448A4.387,4.387,0,0,0,4.5-504l.2.151-.081.029a7.418,7.418,0,0,0-.8.347,7.444,7.444,0,0,0-3.075,2.866A7.353,7.353,0,0,0-.28-497.192l-.02.347H.867v-.142a6.556,6.556,0,0,1,.955-3.17,6.27,6.27,0,0,1,3.347-2.62,6.085,6.085,0,0,1,3.9,0,6.27,6.27,0,0,1,3.347,2.62,6.556,6.556,0,0,1,.955,3.17v.142H14.54l-.02-.347a7.353,7.353,0,0,0-1.019-3.416,7.444,7.444,0,0,0-3.075-2.866,7.418,7.418,0,0,0-.8-.347l-.081-.029.2-.151a4.387,4.387,0,0,0,1.592-2.614,5.753,5.753,0,0,0,.014-1.448,4.5,4.5,0,0,0-1.019-2.148A4.379,4.379,0,0,0,7.876-511.6,6.893,6.893,0,0,0,6.758-511.649Zm.851,1.184a3.131,3.131,0,0,1,2.594,3.572A3.131,3.131,0,0,1,6.631-504.3a3.131,3.131,0,0,1-2.594-3.573A3.131,3.131,0,0,1,7.609-510.465Z" transform="translate(0 0)" fill="#757575"/>
  </g>
</svg>
