<svg xmlns="http://www.w3.org/2000/svg" width="14.823" height="17.767" viewBox="0 0 14.823 17.767">
    <g id="user_8_" data-name="user (8)" transform="translate(0 0)">
        <path id="Path_10920" data-name="Path 10920" d="M91.311,8.559A4.141,4.141,0,0,0,94.337,7.3,4.14,4.14,0,0,0,95.59,4.279a4.141,4.141,0,0,0-1.254-3.026,4.278,4.278,0,0,0-6.051,0,4.141,4.141,0,0,0-1.254,3.026,4.141,4.141,0,0,0,1.254,3.026A4.142,4.142,0,0,0,91.311,8.559Zm0,0" transform="translate(-84.012 0)" fill="#fff"/>
        <path id="Path_10921" data-name="Path 10921" d="M14.787,252.4a10.569,10.569,0,0,0-.144-1.123,8.845,8.845,0,0,0-.276-1.129,5.576,5.576,0,0,0-.464-1.053,3.973,3.973,0,0,0-.7-.912,3.085,3.085,0,0,0-1.005-.632,3.474,3.474,0,0,0-1.283-.232,1.3,1.3,0,0,0-.7.295c-.208.136-.452.293-.725.467a4.152,4.152,0,0,1-.937.413,3.64,3.64,0,0,1-2.293,0,4.142,4.142,0,0,1-.937-.413c-.27-.172-.514-.33-.725-.467a1.3,1.3,0,0,0-.7-.295,3.469,3.469,0,0,0-1.283.232,3.082,3.082,0,0,0-1.005.632,3.973,3.973,0,0,0-.7.912,5.586,5.586,0,0,0-.464,1.053,8.866,8.866,0,0,0-.276,1.129A10.533,10.533,0,0,0,.035,252.4c-.024.34-.036.693-.036,1.049a2.95,2.95,0,0,0,.876,2.232,3.154,3.154,0,0,0,2.258.824h8.555a3.154,3.154,0,0,0,2.258-.824,2.949,2.949,0,0,0,.876-2.232c0-.358-.012-.711-.036-1.049Zm0,0" transform="translate(0 -238.734)" fill="#fff"/>
    </g>
</svg>
